<svg xmlns="http://www.w3.org/2000/svg" width="128" height="128" viewBox="0 0 128 128">
  <title>icon</title>
  <rect width="128" height="128" style="fill: #106f99"/>
  <path d="M0,128H117.9V70.6h-.8c-.8,0-1.3-.1-1.5-.4a3,3,0,0,1-.3-1.6V64.5h2.6V59.5h-2.6V55.6h-7a8.8,8.8,0,0,0-3.2-.7,6.8,6.8,0,0,0-4.2,1.3,4.6,4.6,0,0,0-.7.7H97.6a6,6,0,0,0-1.4-2.6,6.5,6.5,0,0,0-9.4,0h0a.1.1,0,0,0-.1.1h-.1a.1.1,0,0,0-.1.1h0a.1.1,0,0,0-.1.1h0a.1.1,0,0,0-.1.1h0a.1.1,0,0,0-.1.1h-.1a.1.1,0,0,0-.1.1h0a.1.1,0,0,0-.1.1h0a.1.1,0,0,0-.1.1h0a.1.1,0,0,0-.1.1h-.1a.1.1,0,0,0-.1.1h0a.1.1,0,0,0-.1.1h0a.1.1,0,0,0-.1.1h0a.1.1,0,0,0-.1.1h-.1a.1.1,0,0,0-.1.1h0a.1.1,0,0,0-.1.1h0a.1.1,0,0,0-.1.1h0a.1.1,0,0,0-.1.1h-.1a.1.1,0,0,0-.1.1h0a.1.1,0,0,0-.1.1h0a.1.1,0,0,0-.1.1h0a.1.1,0,0,0-.1.1h-.1a.1.1,0,0,0-.1.1h0a.1.1,0,0,0-.1.1h-.1a6.1,6.1,0,0,0,.6-2.8,5.7,5.7,0,0,0-1.7-4.5,6.5,6.5,0,0,0-4.8-1.6H66a4.8,4.8,0,0,0-2.4-.7,35.4,35.4,0,0,0-6.8.8H54.5V55.1H38.6a6.5,6.5,0,0,1-3.4-6H53l-3-.2a20.7,20.7,0,0,0-14.6,6.1,11941971885985.4,11941971885985.4,0,0,1-.3.3.1.1,0,0,0-.1.1h-.1a11941971885985.2,11941971885985.2,0,0,1-.3.3.1.1,0,0,0-.1.1h-.1a11941971885985.4,11941971885985.4,0,0,1-.3.3.1.1,0,0,0-.1.1h-.1a11941971885985.2,11941971885985.2,0,0,1-.3.3.1.1,0,0,0-.1.1h-.1a11941971885985.4,11941971885985.4,0,0,1-.3.3.1.1,0,0,0-.1.1h-.1a11941971885985.2,11941971885985.2,0,0,1-.3.3.1.1,0,0,0-.1.1h-.1a11941971885985.4,11941971885985.4,0,0,1-.3.3.1.1,0,0,0-.1.1h-.1a7961314590657.4,7961314590657.4,0,0,1-.2.2,7961314590657.4,7961314590657.4,0,0,1-.2.2h-.1a7961314590657.4,7961314590657.4,0,0,1-.2.2,7961314590657.4,7961314590657.4,0,0,1-.2.2h-.1a7961314590657.4,7961314590657.4,0,0,1-.2.2,7961314590657.4,7961314590657.4,0,0,1-.2.2h-.1a7961314590657.4,7961314590657.4,0,0,1-.2.2,7961314590657.4,7961314590657.4,0,0,1-.2.2h-.1a7961314590657.4,7961314590657.4,0,0,1-.2.2,7961314590657.4,7961314590657.4,0,0,1-.2.2h-.1a7961314590657.4,7961314590657.4,0,0,1-.2.2,7961314590657.4,7961314590657.4,0,0,1-.2.2h-.1a7961314590657.4,7961314590657.4,0,0,1-.2.2,7961314590657.4,7961314590657.4,0,0,1-.2.2h-.1a7961314590657.4,7961314590657.4,0,0,1-.2.2,7961314590657.4,7961314590657.4,0,0,1-.2.2h-.1a7961314590657.4,7961314590657.4,0,0,1-.2.2,7961314590657.4,7961314590657.4,0,0,1-.2.2h-.1a7961314590657.4,7961314590657.4,0,0,1-.2.2,7237558718782.9,7237558718782.9,0,0,1-.2.2h-.1a7237558718782.9,7237558718782.9,0,0,1-.2.2,7961314590657.5,7961314590657.5,0,0,1-.2.2h-.1a7961314590657.3,7961314590657.3,0,0,1-.2.2,7961314590657.3,7961314590657.3,0,0,1-.2.2h-.1a7961314590657.5,7961314590657.5,0,0,1-.2.2,7961314590657.5,7961314590657.5,0,0,1-.2.2h-.1a7961314590657.3,7961314590657.3,0,0,1-.2.2,7961314590657.6,7961314590657.6,0,0,1-.2.2h-.1a7961314590657.2,7961314590657.2,0,0,1-.2.2,7961314590657.5,7961314590657.5,0,0,1-.2.2h-.1a7961314590657.3,7961314590657.3,0,0,1-.2.2,7961314590657.3,7961314590657.3,0,0,1-.2.2h-.1a7961314590657.5,7961314590657.5,0,0,1-.2.2,7961314590657.5,7961314590657.5,0,0,1-.2.2h-.1a7961314590657.3,7961314590657.3,0,0,1-.2.2,7961314590657.6,7961314590657.6,0,0,1-.2.2h-.1a7961314590657.2,7961314590657.2,0,0,1-.2.2,7961314590657.5,7961314590657.5,0,0,1-.2.2h-.1a7961314590657.3,7961314590657.3,0,0,1-.2.2.1.1,0,0,0-.1.1,19.8,19.8,0,0,0-3.6-.4h.2a.1.1,0,0,1-.1-.1h.2a.1.1,0,0,1-.1-.1h.2a.1.1,0,0,1-.1-.1h.3a.1.1,0,0,1-.1-.1h.2a.1.1,0,0,1-.1-.1h.2a.1.1,0,0,1-.1-.1h.2a.1.1,0,0,1-.1-.1h.3a.1.1,0,0,1-.1-.1h.2a.1.1,0,0,1-.1-.1h.2a.1.1,0,0,1-.1-.1h.2a.1.1,0,0,1-.1-.1h.3a.1.1,0,0,1-.1-.1h.2a.1.1,0,0,1-.1-.1h.2a.1.1,0,0,1-.1-.1h.2a.1.1,0,0,1-.1-.1h.3a.1.1,0,0,1-.1-.1h.2a.1.1,0,0,1-.1-.1h.2a.1.1,0,0,1-.1-.1h.2a.1.1,0,0,1-.1-.1h.3a.1.1,0,0,1-.1-.1h.2a.1.1,0,0,1-.1-.1h.2a.1.1,0,0,1-.1-.1h.2a.1.1,0,0,1-.1-.1h.3a.1.1,0,0,1-.1-.1h.2a.1.1,0,0,1-.1-.1h.2a.1.1,0,0,1-.1-.1h.2a.1.1,0,0,1-.1-.1h.3a.1.1,0,0,1-.1-.1h.2a.1.1,0,0,1-.1-.1h.2a.1.1,0,0,1-.1-.1h.2a.1.1,0,0,1-.1-.1h.3a.1.1,0,0,1-.1-.1h.2a.1.1,0,0,1-.1-.1h.2a.1.1,0,0,1-.1-.1h.2a.1.1,0,0,1-.1-.1h.3a.1.1,0,0,1-.1-.1h.2a.1.1,0,0,1-.1-.1h.2a.1.1,0,0,1-.1-.1h.2a.1.1,0,0,1-.1-.1h.3a.1.1,0,0,1-.1-.1h.2a.1.1,0,0,1-.1-.1h.2a.1.1,0,0,1-.1-.1h.2a.1.1,0,0,1-.1-.1h.3a.1.1,0,0,1-.1-.1h.2a.1.1,0,0,1-.1-.1h.2a.1.1,0,0,1-.1-.1h.2a.1.1,0,0,1-.1-.1h.3a.1.1,0,0,1-.1-.1h.2a.1.1,0,0,1-.1-.1h.2a.1.1,0,0,1-.1-.1h.2a.1.1,0,0,1-.1-.1h.3a.1.1,0,0,1-.1-.1h.2a.1.1,0,0,1-.1-.1h.2a.1.1,0,0,1-.1-.1h.2a.1.1,0,0,1-.1-.1h.3a.1.1,0,0,1-.1-.1h.2a.1.1,0,0,1-.1-.1h.2a.1.1,0,0,1-.1-.1h.2a.1.1,0,0,1-.1-.1h.3a.1.1,0,0,1-.1-.1h.2a.1.1,0,0,1-.1-.1h.2a.1.1,0,0,1-.1-.1h.2a.1.1,0,0,1-.1-.1h.3a.1.1,0,0,1-.1-.1h.2a.1.1,0,0,1-.1-.1h.2a.1.1,0,0,1-.1-.1h.2a.1.1,0,0,1-.1-.1h.3a.1.1,0,0,1-.1-.1h.2a.1.1,0,0,1-.1-.1h.2a.1.1,0,0,1-.1-.1h.2a.1.1,0,0,1-.1-.1h.3a.1.1,0,0,1-.1-.1h.2a.1.1,0,0,1-.1-.1h.2a.1.1,0,0,1-.1-.1h.2a.1.1,0,0,1-.1-.1h.3a.1.1,0,0,1-.1-.1h.2a.1.1,0,0,1-.1-.1h.2a.1.1,0,0,1-.1-.1h.2a.1.1,0,0,1-.1-.1h.3l-.5-.4h.2a.3.3,0,0,0-.1-.2h.2v-.2h.2a.3.3,0,0,0-.1-.2h.2a.3.3,0,0,0-.1-.2h.2a.3.3,0,0,0-.1-.2h.2a.3.3,0,0,0-.1-.2h.2v-.2H29a.3.3,0,0,0-.1-.2h.2a.3.3,0,0,0-.1-.2h.2a.3.3,0,0,0-.1-.2h.2a.3.3,0,0,0-.1-.2h.2v-.2h.2a.3.3,0,0,0-.1-.2h.2a.3.3,0,0,0-.1-.2h.2a.3.3,0,0,0-.1-.2h.2a.3.3,0,0,0-.1-.2h.2v-.2H30a.3.3,0,0,0-.1-.2h.2a.3.3,0,0,0-.1-.2h.2a.3.3,0,0,0-.1-.2h.2a.3.3,0,0,0-.1-.2h.2v-.2h.2a.3.3,0,0,0-.1-.2h.2a.3.3,0,0,0-.1-.2h.2a.3.3,0,0,0-.1-.2h.2a.3.3,0,0,0-.1-.2h.2v-.2H31a.3.3,0,0,0-.1-.2h.2a.3.3,0,0,0-.1-.2h.2a.3.3,0,0,0-.1-.2h.2a.3.3,0,0,0-.1-.2h.2v-.2h.2a.3.3,0,0,0-.1-.2h.2a.3.3,0,0,0-.1-.2h.2a.3.3,0,0,0-.1-.2h.2a.3.3,0,0,0-.1-.2h.2v-.2H32a.3.3,0,0,0-.1-.2h.2a.3.3,0,0,0-.1-.2h.2a.3.3,0,0,0-.1-.2h.2a.3.3,0,0,0-.1-.2h.2v-.2h.2a.3.3,0,0,0-.1-.2h.2a.3.3,0,0,0-.1-.2h.2a.3.3,0,0,0-.1-.2h.2a.3.3,0,0,0-.1-.2h.2v-.2H33a.3.3,0,0,0-.1-.2h.2a.3.3,0,0,0-.1-.2h.2a.3.3,0,0,0-.1-.2h.2a.3.3,0,0,0-.1-.2h.2v-.2h.2a.3.3,0,0,0-.1-.2h.2a.3.3,0,0,0-.1-.2h.2a.3.3,0,0,0-.1-.2h.2a.3.3,0,0,0-.1-.2h.2v-.2H34a.3.3,0,0,0-.1-.2h.2a.3.3,0,0,0-.1-.2h.2a.3.3,0,0,0-.1-.2h.2a.3.3,0,0,0-.1-.2h.2v-.2h.2a.3.3,0,0,0-.1-.2h.2a.3.3,0,0,0-.1-.2h.2a.3.3,0,0,0-.1-.2h.2a.3.3,0,0,0-.1-.2h.2v-.2H35a.3.3,0,0,0-.1-.2h.2a.3.3,0,0,0-.1-.2h.2a.3.3,0,0,0-.1-.2h.2a.3.3,0,0,0-.1-.2h.2v-.2h.2a.3.3,0,0,0-.1-.2h.2a.3.3,0,0,0-.1-.2h.2a.3.3,0,0,0-.1-.2h.2a.3.3,0,0,0-.1-.2h.2v-.2H36a.3.3,0,0,0-.1-.2h.2a.3.3,0,0,0-.1-.2h.2a.3.3,0,0,0-.1-.2h.2a.3.3,0,0,0-.1-.2h.2v-.2h.2a22.8,22.8,0,0,0-3.2-7.1,25.8,25.8,0,0,0-5.5-5.6v.2h-.1v.2h-.1v.2h-.1V32h-.1v.2h-.1v.2h-.1v.2h-.1v.2H27v.2h-.1v.2h-.1v.2h-.1v.2h-.1v.2h-.1V33h-.1v.2h-.1v.2h-.1v.2h-.1v.2H26v.2h-.1v.2h-.1v.2h-.1v.2h-.1v.2h-.1V34h-.1v.2h-.1v.2h-.1v.2h-.1v.2H25v.2h-.1v.2h-.1v.2h-.1v.2h-.1v.2h-.1V35h-.1v.2h-.1v.2h-.1v.2h-.1v.2H24v.2h-.1v.2h-.1v.2h-.1v.2h-.1v.2h-.1V36h-.1v.2h-.1v.2h-.1v.2h-.1v.2H23v.2h-.1v.2h-.1v.2h-.1v.2h-.1v.2h-.1V37h-.1v.2h-.1v.2h-.1v.2h-.1v.2H22v.2h-.1v.2h-.1v.2h-.1v.2h-.1v.2h-.1V38h-.1v.2h-.1v.2h-.1v.2h-.1v.2H21v.2h-.1v.2h-.1v.2h-.1v.2h-.1v.2h-.1V39h-.1v.2h-.1v.2h-.1v.2h-.1v.2H20v.2h-.1v.2h-.1v.2h-.1v.2h-.1v.2h-.1V40h-.1v.2h-.1v.2h-.1v.2h-.1v.2H19v.2h-.1v.2h-.1v.2h-.1v.2h-.1v.2h-.1V41h-.1v.2h-.1v.2h-.1v.2h-.1v.2H18v.2h-.1v.2h-.1v.2h-.1v.2h-.1v.2h-.1V42h-.1v.2h-.1v.2h-.1v.2h-.1v.2H17v.2h-.1v.2h-.1v.2h-.1v.2h-.1v.2h-.1V43h-.1v.2h-.1v.2h-.1v.2h-.1v.2H16v.2h-.1v.2h-.1v.2h-.1v.2h-.1v.2h-.1V44h-.1v.2h-.1v.2h-.1v.2h-.1v.2H15v.2h-.1v.2h-.1v.2h-.1v.2h-.1v.2h-.1V45h-.1v.2h-.1v.2h-.1v.2h-.1v.2H14v.2h-.1v.2h-.1v.2h-.1v.2h-.1v.2h-.1V46h-.1v.2h-.1v.2h-.1v.2h-.1v.2H13v.2h-.1v.2h-.1v.2h-.1v.2h-.1v.2h-.1V47h-.1v.2h-.1v.2h-.1v.2h-.1v.2H12v.2h-.1v.2h-.1v.2h-.1v.2h-.1v.2h-.1V48h-.1v.2h-.1v.2h-.1v.2h-.1v.2H11v.2h-.1v.2h-.1v.2h-.1v.2h-.1v.2h-.1V49h-.1v.2h-.1v.2h-.1v.2h-.1v.2H10v.2H9.9v.2H9.8v.2H9.7v.2H9.6v.2H9.5V50H9.4v.2H9.3v.2H9.2v.2H9.1v.2H9v.2H8.9v.2H8.8v.2H8.7v.2H8.6v.2H8.5V51H8.4v.2H8.3v.2H8.2v.2H8.1v.2H8v.2H7.9v.2H7.8v.2H7.7v.2H7.6v.2H7.5V52H7.4v.2H7.3v.2H7.2v.2H7.1v.2H7v.2H6.9v.2H6.8v.2H6.7v.2H6.6v.2H6.5V53H6.4v.2H6.3v.2H6.2v.2H6.1v.2H6v.2H5.9v.2H5.8v.2H5.7v.2H5.6v.2H5.5V54H5.4v.2H5.3v.2H5.2v.2H5.1v.2H5v.2H4.9v.2H4.8v.2H4.7v.2H4.6v.2H4.5V55H4.4v.2H4.3v.2H4.2v.2H4.1v.2H4v.2H3.9v.2H3.8v.2H3.7v.2H3.6v.2H3.5V56H3.4v.2H3.3v.2H3.2v.2H3.1v.2H3v.2H2.9v.2H2.8v.2H2.7v.2H2.6v.2H2.5V57H2.4v.2H2.3v.2H2.2v.2H2.1v.2H2v.2H1.9v.2H1.8v.2H1.7v.2H1.6v.2H1.5V58H1.4v.2H1.3v.2H1.2v.2H1.1v.2H1v.2H.9v.2H.8v.2H.7v.2H.6v.2H.5V59H.4v.2H.3v.2H.2v.2H.1v.2a.1.1,0,0,1-.1-.1v.2H0Z" style="fill: #045572"/>
  <g>
    <rect x="51.2" y="55.1" width="3.4" height="18.02" style="fill: #fff"/>
    <path d="M68.2,73.1h-3V64.5c0-1.8-.8-2.7-2.2-2.8a12.7,12.7,0,0,0-3.3.3V73.1H56.8V59.9a35.4,35.4,0,0,1,6.8-.8,4.2,4.2,0,0,1,3.3,1.4A4.5,4.5,0,0,1,68.2,64Z" style="fill: #fff"/>
    <path d="M81,61.2A2.9,2.9,0,0,0,77.8,58H74v6.4h3.7a3.2,3.2,0,0,0,2.4-.8,3.2,3.2,0,0,0,.9-2.4m3.4,0a5.9,5.9,0,0,1-1.7,4.4,6,6,0,0,1-4.6,1.7H74v5.8H70.7v-18h7.2a6.5,6.5,0,0,1,4.8,1.6,5.7,5.7,0,0,1,1.7,4.5" style="fill: #fff"/>
    <path d="M94.9,66.3a5.1,5.1,0,0,0-.9-3.2,3.2,3.2,0,0,0-5,0,5.1,5.1,0,0,0-.9,3.2,5.3,5.3,0,0,0,.9,3.2,3.2,3.2,0,0,0,5,0,5.3,5.3,0,0,0,.9-3.2m3.1,0a7.5,7.5,0,0,1-1.8,5.2,6.8,6.8,0,0,1-9.4,0A7.5,7.5,0,0,1,85,66.3a7.3,7.3,0,0,1,1.8-5.2,6.5,6.5,0,0,1,9.4,0A7.3,7.3,0,0,1,98,66.3" style="fill: #fff"/>
    <path d="M110.8,68.7a4.1,4.1,0,0,1-1.6,3.4,5.9,5.9,0,0,1-4.1,1.3A8.2,8.2,0,0,1,98.8,71l2.3-1.9a5.3,5.3,0,0,0,3.9,1.6,3.7,3.7,0,0,0,2-.4,1.7,1.7,0,0,0,.8-1.3,1.2,1.2,0,0,0-.9-1.2l-2.6-.5a8,8,0,0,1-3.6-1.1,3,3,0,0,1-1.3-2.7,3.7,3.7,0,0,1,1.5-3.1,6.8,6.8,0,0,1,4.2-1.3,7.4,7.4,0,0,1,5.3,2.1l-1.8,1.9a4.8,4.8,0,0,0-3.6-1.4c-1.8,0-2.6.5-2.6,1.4s.4,1,1.2,1.2l3.3.6c2.6.4,3.9,1.7,3.9,3.8" style="fill: #fff"/>
    <path d="M117.9,73.1l-1.6.2c-1.6,0-2.8-.4-3.3-1.2a6.4,6.4,0,0,1-.6-3.3V55.6h2.9v3.9h2.6v2.4h-2.6v6.7a3,3,0,0,0,.3,1.6c.2.3.7.4,1.5.4h.8Z" style="fill: #fff"/>
    <path d="M25.7,64a23.3,23.3,0,0,1-7.8,1.4A23.3,23.3,0,0,1,10.1,64a24.9,24.9,0,0,1,7.8-1.3A24.9,24.9,0,0,1,25.7,64" style="fill: #fff"/>
    <path d="M36.5,44.2A23.5,23.5,0,0,1,31,38.6a22.8,22.8,0,0,1-3.2-7.1,25.8,25.8,0,0,1,5.5,5.6,22.8,22.8,0,0,1,3.2,7.1" style="fill: #fff"/>
    <path d="M28.6,52.7A24.9,24.9,0,0,1,21,50.4a23.2,23.2,0,0,1-6.2-4.8A23.4,23.4,0,0,1,22.3,48a25.9,25.9,0,0,1,6.3,4.7" style="fill: #fff"/>
    <path d="M35.9,70.1a27,27,0,0,0,4.2-1.7s-5.3-1.5-4.9-7.1A20.5,20.5,0,0,1,53,43.9l-3-.2a20.3,20.3,0,1,0,.2,40.6l2.8-.2A20.6,20.6,0,0,1,35.9,70.1Z" style="fill: #fff"/>
    <path d="M36.5,83.8A23.5,23.5,0,0,0,31,89.4a22.8,22.8,0,0,0-3.2,7.1,25.8,25.8,0,0,0,5.5-5.6,22.8,22.8,0,0,0,3.2-7.1" style="fill: #fff"/>
    <path d="M28.6,75.3A24.9,24.9,0,0,0,21,77.6a23.2,23.2,0,0,0-6.2,4.8A23.4,23.4,0,0,0,22.3,80a25.9,25.9,0,0,0,6.3-4.7" style="fill: #fff"/>
  </g>
</svg>
