<svg id="Layer_1" data-name="Layer 1" xmlns="http://www.w3.org/2000/svg" viewBox="0 0 128 128"><defs><style>.cls-1{fill:#106f99;}.cls-2{fill:#fff;stroke:#fff;stroke-miterlimit:10;stroke-width:5px;}</style></defs><rect class="cls-1" width="128" height="128"/><path class="cls-2" d="M65,26.76a2.66,2.66,0,0,0-2,0L30.91,39.59l12.92,5.17,33.1-13.23Zm19.17,7.67L51.07,47.66,64,52.83,97.09,39.59Zm17.47,9.14-34.95,14v42.6l35-14V43.57ZM61.31,100.16V57.55l-34.95-14V86.18ZM61,21.76a8.08,8.08,0,0,1,6,0L105.33,37.1A2.69,2.69,0,0,1,107,39.59V86.18a5.39,5.39,0,0,1-3.38,5L65,106.62a2.66,2.66,0,0,1-2,0L24.37,91.17a5.37,5.37,0,0,1-3.39-5V39.59a2.69,2.69,0,0,1,1.69-2.49Z"/></svg>