<svg width="900" height="1200" xmlns="http://www.w3.org/2000/svg" xml:space="preserve" version="1.1">
 <metadata id="metadata8">image/svg+xml</metadata>
 <defs id="defs6">
  <clipPath id="clipPath20" clipPathUnits="userSpaceOnUse">
   <path id="path18" d="m-136.3638,7101.05572l0,-6775.67l4958,0l0,6775.67l-4958,0z"/>
  </clipPath>
 </defs>
 <g>
  <title>Layer 1</title>
  <g transform="matrix(1.74244 0 0 -1.59495 -5.23961 1345.63)" id="g10">
   <g transform="translate(-5.45455 10.9091) scale(0.12 0.12)" id="g12">
    <g id="g14">
     <g clip-path="url(#clipPath20)" id="g16">
      <path id="path22" d="m230.0932,6732.51572l4005.263,0l0,-5983.388l-4005.263,0l0,5983.388zm3.891,-5979.49l3997.462,0l0,5975.59l-3997.462,0" fill="#21401d" fill-rule="nonzero"/>
      <g transform="translate(-136.364 204.546) scale(8.33333 8.33333)" id="g24">
       <text x="0" y="0" id="text28" transform="matrix(1 0 0 -1 26.197 786.317)" font-weight="bold" font-size="19.7813px" font-family="Helvetica" fill="#21401d" fill-rule="nonzero">
        <tspan id="tspan26" y="0" x="0">3</tspan>
       </text>
       <text x="0" y="0" id="text36" transform="matrix(1 0 0 -0.782607 43.973 796.207)" font-weight="normal" font-size="5.68712px" font-family="Helvetica" fill="#21401d" fill-rule="nonzero">
        <tspan id="tspan30" y="0" x="0 3.7933075 6.9553447 9.7989035 12.960941 17.698311 20.860348 22.122889 25.284925 27.178736 31.743778 34.905815 36.168358 41.166771 44.328808 46.222618 49.066177 52.228214 56.334312 59.496349 59.947338 62.339298 65.501335 66.763878 69.607437">Egzemplarzdlaprzewoz´nika</tspan>
        <tspan id="tspan32" y="6.31902" x="0 3.7933075 6.6368661 9.7989035 14.535606 17.697643 18.960184 22.122221 25.728321 27.30934 30.540129 34.215622 37.377659 40.539696 45.643253 49.117424 51.010567 54.172604 57.016163 60.1782 61.75922 63.340237 66.502274 69.664314 71.557457 74.719498">ExemplarfürdenFrachtführer</tspan>
        <tspan id="tspan34" y="12.63804" x="0 4.1060991 7.2681365 10.430174 15.103278 16.684298 19.846334 23.590681 26.43424 29.596277 31.490088 33.3839 34.646439 37.808475">Copyforcarrier</tspan>
       </text>
       <text x="0" y="0" id="text40" transform="matrix(1 0 0 -1 53.8636 771.481)" font-weight="bold" font-size="9.89063px" font-family="Helvetica" fill="#21401d" fill-rule="nonzero">
        <tspan id="tspan38" y="0" x="0">1</tspan>
       </text>
       <text x="0" y="0" id="text54" transform="matrix(1 0 0 -1 61.2816 777.429)" font-weight="normal" font-size="3.95625px" font-family="Helvetica" fill="#21401d" fill-rule="nonzero">
        <tspan id="tspan42" y="0" x="0 2.8564124 5.0560875 7.2557626 9.4554377 12.31185 14.289975 17.643288 18.96072 21.160395 23.360069 25.338194 28.194607 29.072895 31.05102 33.029144 36.489677 37.367966 39.567638 43.038849 45.238525 47.438198 49.416325 52.272736 54.472412 56.872673 59.072346 61.272022 62.589455 64.789131 66.76725 69.102631 71.08075 72.398186 74.597862 75.476143">Nadawca(nazwiskolubnazwa,adres,kraj)</tspan>
        <tspan id="tspan44" y="4.94531" x="0 2.6388187 4.8384938 6.8166189 9.0162935 11.215969 13.415644 15.615318 18.177757 19.49519 22.351603 24.551277 27.846832 30.046509 32.412743 35.051559 37.251236 39.229359 41.207485 43.407162 44.72459 45.602879 46.702717 47.802555 50.189754 52.389431 54.589104 56.78878 58.988457">Absender(Name,Anschrift,Land)</tspan>
        <tspan id="tspan46" y="9.89062" x="0 2.6388187 4.8384938 7.0381689 9.2378435 11.437519 13.967517 15.284948 17.484623 19.684298 22.979855 25.179529 27.53429 29.733965 31.93364 34.133316 35.450745 37.650421 39.628544 41.60667 44.04134 46.019463 48.219139 50.418816 52.618488 53.718327 55.035759 57.013882">Sender(name,address,country)</tspan>
        <tspan id="tspan48" y="-0.00001" x="229.95799 233.29472 234.43575 235.96504 237.10876 239.98218 242.4548 245.12808 248.00151 250.74164 253.5486 256.68945 259.62973 262.70377 266.57968 270.52249 273.19577 275.80219 279.14359 282.35135 285.22513 288.0321 291.30667 294.11365 297.18765 301.0636 305.00638 307.21161 308.48157 311.08798 314.89706 317.63718 320.44415 322.91675 325.65689 329.33221 332.53998 335.01257 338.15347 341.96255">MIE˛DZYNARODOWYSAMOCHODOWYLISTPRZEWOZOWY</tspan>
        <tspan id="tspan50" y="5.41265" x="229.95799 231.09422 233.90077 236.37341 239.11354 241.92369 244.9308 247.52336 249.996 251.19911 254.27312 257.14651 259.88666 262.09186 264.832 269.04221 271.51486 274.32501 277.06512 279.87527 282.74905 285.22168 287.96182 290.77197 292.04153 294.58105">INTERNATIONALERFRACHTBRIEF</tspan>
        <tspan id="tspan52" y="10.89234" x="229.95799 231.09422 233.90077 236.37341 239.11354 241.93158 244.93875 247.53918 250.01183 251.21494 254.28897 257.16235 259.90247 263.44455 266.31793 269.39194 272.33224 274.93271 276.2023 279.27628 282.15012 285.49152 288.16479 291.03818">INTERNATIONALCONSIGNMENT</tspan>
       </text>
       <text x="0" y="0" id="text58" transform="matrix(1 0 0 -1 386.203 759.652)" font-weight="bold" font-size="9.89063px" font-family="Helvetica" fill="#21401d" fill-rule="nonzero">
        <tspan id="tspan56" y="0" x="0 7.2844429 15.57074">CMR</tspan>
       </text>
       <text x="0" y="0" id="text62" transform="matrix(1 0 0 -1 420.953 762.593)" font-weight="bold" font-size="3.95625px" font-family="Helvetica" fill="#21401d" fill-rule="nonzero">
        <tspan id="tspan60" y="0" x="0">N</tspan>
       </text>
       <text x="0" y="0" id="text66" transform="matrix(1 0 0 -1 423.76 764.063)" font-weight="bold" font-size="2.96719px" font-family="Helvetica" fill="#21401d" fill-rule="nonzero">
        <tspan id="tspan64" y="0" x="0">o</tspan>
       </text>
      </g>
      <path id="path68" d="m3394.9262,6562.64572l16.2461,0l0,5.1055l-16.2461,0l0,-5.1055z" fill="#21401d" fill-rule="nonzero"/>
      <path id="path70" d="m3024.1362,6520.88572c0,-17.63 75.18,-35.5 150.35,-35.5l12.31,0c75.18,0 150.36,17.87 150.36,35.5l0,77.04c0,17.64 -75.18,35.5 -150.36,35.5l-12.31,0c-75.17,0 -150.35,-17.86 -150.35,-35.5l0,-77.04zm16.24,77.04c0,9.75 67.06,19.5 134.11,19.5l12.31,0c67.05,0 134.12,-9.75 134.12,-19.5l0,-77.04c0,-9.74 -67.07,-19.49 -134.12,-19.49l-12.31,0c-67.05,0 -134.11,9.75 -134.11,19.49" fill="#21401d" fill-rule="nonzero"/>
      <g transform="translate(-136.364 204.546) scale(8.33333 8.33333)" id="g72">
       <text x="0" y="0" id="text78" transform="matrix(1 0 0 -1 291.239 746.754)" font-weight="normal" font-size="3.95625px" font-family="Helvetica" fill="#21401d" fill-rule="nonzero">
        <tspan id="tspan74" y="0" x="0 2.8069594 3.6757548 5.9478221 6.9503579 9.1595249 10.047305 11.985469 14.124228 17.465685 19.670897 20.997791 23.002811 25.212008 28.077911 28.455967 30.273497 33.614983 35.818668 38.090797 40.294456 41.29702 43.50071 45.704395 49.1796 51.451725 53.656967 55.728519 56.864803 59.068462 61.340588 63.544277 66.351295 67.353828 69.559074 71.8312 72.70002 74.903709 79.581612 81.586693 83.791931 86.064056 88.871078 91.074768 93.346863 95.418388 96.287209 98.49247 102.10141 104.3051 107.64657 109.919 112.72602 113.60829 117.21723 120.5587 121.42752 122.0377 123.63359 125.83875 127.9771 129.91521 132.18724 134.39243 135.72087 137.9929 140.20363 142.41435 145.28177 147.49252 149.69769 151.96973 153.30609 155.37793 157.64998 160.45691 162.72894 164.66708">Niniejszyprzewo´zpodlegapostanowieniomkonwencjioumowiemie˛dzynarodowejprzewozu</tspan>
        <tspan id="tspan76" y="4.94531" x="0 2.2083762 3.6116474 5.8200235 8.028429 10.236805 13.10189 15.310295 17.582392 21.124392 22.260645 24.469049 27.334135 29.54254 30.868643 31.262899 33.147251 37.357475 38.687534 41.627823 44.969257 47.843071 50.58316 52.795521 55.00782 58.349304 61.218376 63.156509 65.428604 66.364258 66.970444 68.633224 70.83847 74.313644 76.518852 80.127739 80.996536 83.194244 85.265739 86.614838 87.537788 89.475952 91.748047 92.624344 95.564629 96.440956 98.638641 101.98009 104.18534 105.58861 107.52674 109.799 111.87049 112.74679 115.62022 117.81791 119.167 121.4268 123.36496 124.36747 126.57268 128.84474 130.78294 133.05504 133.85692 134.46744 136.12985">drogowegotowaro´w(CMR)bezwzgle˛dunajaka˛kolwiekprzeciwna˛klauzule˛.</tspan>
       </text>
      </g>
      <path id="path80" d="m230.0932,6732.51572l4005.263,0l0,-543.54l-4005.263,0l0,543.54zm3.891,-539.64l3997.462,0l0,535.74l-3997.462,0" fill="#21401d" fill-rule="nonzero"/>
      <g transform="translate(-136.364 204.546) scale(8.33333 8.33333)" id="g82">
       <text x="0" y="0" id="text100" transform="matrix(1 0 0 -1 291.239 735.928)" font-weight="normal" font-size="3.95625px" font-family="Helvetica" fill="#21401d" fill-rule="nonzero">
        <tspan id="tspan84" y="0" x="0 2.8069594 3.6757548 5.9478221 8.0197268 11.494901 14.235028 16.441822 17.578047 19.78484 21.10939 23.381487 25.5867 26.911221 29.183317 31.390112 34.93214 37.204205 39.409447 40.545673 42.750885 44.075436 45.077942 45.963348 48.170143 50.442238 52.914894 53.984264 55.387535 57.59433 58.863884 62.138451 64.410545 65.295952 67.502747 69.709572 72.449631 74.656456 76.928551 79.135345 81.34214 83.614235">DieseBeförderungunterliegttrotzeinergegen-</tspan>
        <tspan id="tspan86" y="4.94531" x="0 1.1361949 3.3413777 4.2227998 5.2252479 6.1066699 8.3094797 10.512289 14.121145 16.727474 18.932657 22.274063 24.479246 26.617565 28.820375 31.023186 33.295223 36.703514 38.975552 41.17836 44.787216 47.46043 49.732468 51.670605 52.80677 53.809277 57.150681 60.492058 62.694866 64.897675 67.100487 69.372528 72.847672 75.050446 77.253258">teiligenAbmachungdenBestimmungendes</tspan>
        <tspan id="tspan88" y="9.89062" x="0 2.8069594 5.0790563 7.2878428 8.6143265 10.886423 11.75519 13.963976 16.035881 18.307947 21.649412 24.990818 27.199604 29.408392 32.749847 34.958633 37.230701 39.439487 42.045864 44.25465 46.526749 50.068775 52.808872 55.017658 56.153912 58.362701 59.689213 61.961281 64.166519 65.493004 67.765106 69.973892 72.182678 74.187698 76.259598 78.53167 79.858177 80.994408 82.320915 84.529701">ÜbereinkommensüberdenBeförderungsvertrag</tspan>
        <tspan id="tspan90" y="14.83593" x="0 0.88186175 5.5597038 6.4415364 8.6448145 9.7810392 11.986251 13.389493 15.592742 17.795992 19.065956 19.947819 22.151037 24.354286 26.626385 27.508217 29.711466 33.320351 35.993622 37.129875 38.466259 40.738358 42.676491 44.81525 47.018471 49.221752 51.49382 53.697067 54.766464 57.038532 58.37495 60.379967 62.585182 63.906158 66.04451 68.247757 70.451004 73.05735 74.460594 77.400909 80.742348 83.615723">iminternationalenStrassengüterverkehr(CMR)</tspan>
        <tspan id="tspan92" y="0.00003" x="120.692 123.16464 125.36985 126.25406 129.59554 131.53368 133.80577 135.12912 136.45244 137.45497 139.6606 141.93269 145.40784 146.34349 149.68498 151.68999 153.89561 156.10121 156.98544 159.25751 161.32942 163.80211 166.00729 168.27936 169.34875 172.21111 173.21362 174.28299 176.55508 178.49323 179.76318 181.96884 184.17442 186.4465 187.3307 189.53633 193.14523 195.35086 197.55646">Thiscarriageissubjectnotwithstandingany</tspan>
        <tspan id="tspan94" y="4.94534" x="120.692 122.63013 123.49896 125.70417 127.97626 130.04773 133.52293 134.7256 138.20081 139.47037 141.67557 145.15077 147.22227 149.49434 151.69955 152.8358 154.1722 156.3774 157.78067 159.71884 162.1915 163.46107 166.86937 168.13895 170.34416 173.81934 176.75963 179.03172 181.23694 183.24196 185.44716 187.65237 188.78864 189.79114 191.99635 195.4715 197.6767">clausetothecontrary,totheConventionon</tspan>
        <tspan id="tspan96" y="9.89065" x="120.692 121.76178 123.9674 127.57667 130.45091 132.6561 134.86131 135.99796 137.32092 139.5934 141.66568 144.13872 145.27536 147.48097 150.22144 151.29124 153.56374 157.10614 157.98996 160.26244 161.33221 163.53781 164.9415 167.14674 169.35194 170.6223 171.50609 173.71136 175.91656 178.18903 180.39461 183.26886 185.47409 186.79701 188.20068 189.13672 191.40916 193.61479 197.09041 199.29602">theContractfortheinternationalCarriageof</tspan>
        <tspan id="tspan98" y="14.83596" x="120.692 122.9012 125.11037 127.31956 129.59163 132.93309 135.13829 138.47975 139.81615 142.08824 144.29344 147.76862 149.10504 152.04572 155.38712 158.25305">goodsbyroad(CMR)</tspan>
       </text>
      </g>
      <path id="path102" d="m2257.9162,6189.06572l3.9453,0l0,543.449l-3.9453,0l0,-543.449z" fill="#21401d" fill-rule="nonzero"/>
      <g transform="translate(-136.364 204.546) scale(8.33333 8.33333)" id="g104">
       <text x="0" y="0" id="text108" transform="matrix(1 0 0 -1 53.8636 706.256)" font-weight="normal" font-size="9.89063px" font-family="Helvetica" fill="#21401d" fill-rule="nonzero">
        <tspan id="tspan106" y="0" x="0">2</tspan>
       </text>
       <text x="0" y="0" id="text116" transform="matrix(1 0 0 -1 61.4156 712.137)" font-weight="normal" font-size="3.95625px" font-family="Helvetica" fill="#21401d" fill-rule="nonzero">
        <tspan id="tspan110" y="0" x="0 3.0834923 5.2887044 7.5607867 8.4295673 10.634787 11.957733 14.09609 17.5044 18.907648 21.112862 23.318073 25.45643 28.26339 29.132177 31.270535 33.208706 36.817604 37.686394 39.891598 43.500496 45.705696 47.977776 49.915939 52.789764 54.994976 57.467628 59.672832 61.944916 63.267838 65.473038 67.611397 70.084053 72.022224 73.425461 75.630661 76.514488">Odbiorca(nazwiskolubnazwa,adres,kraj)</tspan>
        <tspan id="tspan112" y="4.94531" x="0 2.6064017 5.9478369 8.1530342 9.3561363 11.628211 13.833423 16.038635 18.310703 20.850195 22.25346 25.193741 27.398947 30.740368 33.012436 35.485088 38.091503 40.296715 42.368202 44.373238 46.578442 47.981697 48.850494 50.053589 51.189819 53.662472 55.867683 58.07288 60.344971 62.550167">Empfänger(Name,Anschrift,Land)</tspan>
        <tspan id="tspan114" y="9.89062" x="0 2.8069522 5.0790343 7.287806 9.2928333 10.228484 12.500566 14.709338 16.91811 20.393276 21.719782 23.99185 26.200621 29.542042 31.75082 34.223473 36.495541 38.704319 40.913097 42.239597 44.511681 46.583168 48.588192 51.060844 52.999008 55.271091 57.479855 59.688637 60.958195 62.284679 64.289711">Consignee(name,address,country)</tspan>
       </text>
       <text x="0" y="0" id="text120" transform="matrix(1 0 0 -1 292.242 706.256)" font-weight="bold" font-size="9.89063px" font-family="Helvetica" fill="#21401d" fill-rule="nonzero">
        <tspan id="tspan118" y="0" x="0 5.5467391">16</tspan>
       </text>
       <text x="0" y="0" id="text128" transform="matrix(1 0 0 -1 305.34 712.137)" font-weight="normal" font-size="3.95625px" font-family="Helvetica" fill="#21401d" fill-rule="nonzero">
        <tspan id="tspan122" y="0" x="0 2.5976567 3.9340138 6.0058594 8.2779274 11.093148 13.365187 13.679543 15.303565 17.575632 18.511284 21.852768 23.25601 25.461222 27.666433 29.671484 32.478413 33.480949 35.48597 37.424133 41.033047 41.901814 44.107025 47.715939 49.921154 52.193249 54.131413 57.138531 59.3438 61.816456 64.021637 66.226852 67.630119 69.835335 71.840355 74.313042 76.251205 77.65448 79.859688 80.862198">Przewoz´nik(nazwiskolubnazwa,adres,kraj)</tspan>
        <tspan id="tspan124" y="4.94531" x="0 2.47264 3.8090556 6.014678 8.0196972 10.22532 11.361544 12.631098 14.83672 17.042343 18.365664 20.63776 23.244137 24.567457 27.507776 29.779842 33.121277 35.3269 37.799557 40.405945 42.611156 44.749504 46.687672 48.893291 50.296535 51.180771 52.383877 53.520103 55.99276 58.19838 60.403973 62.676071 64.881691">Frachtführer(Name,Anschrift,Land)</tspan>
        <tspan id="tspan126" y="9.89062" x="0 2.8061686 5.0778551 6.4012046 7.7245536 8.6087885 10.880445 13.553268 14.956129 17.161751 19.367374 22.708399 24.980085 27.452366 29.657959 31.863581 34.069176 35.472065 37.677689 39.682327 41.753792 44.22607 46.230679 48.436302 50.641926 52.913612 53.982597 55.38546 57.456924">Carrier(name,address,country)</tspan>
       </text>
       <text x="0" y="0" id="text132" transform="matrix(1 0 0 -1 305.34 667.629)" font-weight="bold" font-size="7.9125px" font-family="Helvetica" fill="#21401d" fill-rule="nonzero">
        <tspan id="tspan130" y="0" x="0 5.6803932 14.100837 19.91497 25.194248 31.564602 103.5841">NRREJ:/</tspan>
       </text>
      </g>
      <path id="path134" d="m2257.9162,6193.00572l1978.13,0l0,-1582.16l-1978.13,0l0,1582.16zm16.15,-1566.01l1945.82,0l0,1549.87l-1945.82,0" fill="#21401d" fill-rule="nonzero"/>
      <path id="path136" d="m230.0932,5640.50572l2027.14,0l0,3.9453l-2027.14,0l0,-3.9453z" fill="#21401d" fill-rule="nonzero"/>
      <g transform="translate(-136.364 204.546) scale(8.33333 8.33333)" id="g138">
       <text x="0" y="0" id="text142" transform="matrix(1 0 0 -1 53.8636 641.967)" font-weight="bold" font-size="9.89063px" font-family="Helvetica" fill="#21401d" fill-rule="nonzero">
        <tspan id="tspan140" y="0" x="0">3</tspan>
       </text>
       <text x="0" y="0" id="text150" transform="matrix(1 0 0 -1 61.4156 647.848)" font-weight="normal" font-size="3.95625px" font-family="Helvetica" fill="#21401d" fill-rule="nonzero">
        <tspan id="tspan144" y="0" x="0 3.3414207 4.210216 6.4154205 7.2992454 9.3711348 11.376169 14.985061 17.190273 18.513212 20.518246 22.723457 24.728493 26.933704 29.138903 31.277258 33.215431 35.487499 37.692719 38.576542 42.185425 43.52182 46.863239 47.732029 49.937248 50.939754 52.944771 54.882938 57.088158 60.095303 62.300499 62.561695 64.289352 64.714188 66.227425 68.700081 70.838432 72.174805 74.380013 75.24881">Miejsceprzeznaczenia(miejscowos´c´,kraj)</tspan>
        <tspan id="tspan146" y="4.94531" x="0 2.6063652 4.8115406 6.8833938 7.7648087 8.6462164 10.918247 12.12129 14.326466 15.729685 17.932487 20.135283 22.407314 24.345448 26.617479 27.938002 30.410618 32.613422 34.816216 38.157623 41.298443 43.50362 44.706669 46.978703 50.32011 51.656467 54.737549 56.140762 57.210094 59.682693 61.954735 64.157532 66.360306 68.632347">AuslieferungsortdesGutes(Ort,Land)</tspan>
        <tspan id="tspan148" y="9.89062" x="0 2.6064017 3.5420601 5.8141274 7.7522917 11.361183 13.566395 16.039047 18.311115 20.516729 21.400944 22.28517 24.356672 26.62874 27.965126 31.306574 33.511795 35.984447 37.12067 39.326294 42.935169 45.140781 47.34639 49.618465 51.824081 55.165531 56.488873 58.760941 59.562862 61.834946 63.773109 66.045166 68.517838 70.589317 72.79493 75.066994 77.272591 78.408813 79.732147 81.737167">Placeofdeliveryofthegoods(place,country)</tspan>
       </text>
       <text x="0" y="0" id="text154" transform="matrix(1 0 0 -1 292.242 646.912)" font-weight="bold" font-size="9.89063px" font-family="Helvetica" fill="#21401d" fill-rule="nonzero">
        <tspan id="tspan152" y="0" x="0 5.5467391">17</tspan>
       </text>
       <text x="0" y="0" id="text162" transform="matrix(1 0 0 -1 305.34 652.793)" font-weight="normal" font-size="3.95625px" font-family="Helvetica" fill="#21401d" fill-rule="nonzero">
        <tspan id="tspan156" y="0" x="0 2.6064165 4.8116283 5.8141346 8.0193472 8.9047537 11.111547 13.383634 15.588846 16.913397 18.918386 21.12521 24.132355 26.339149 26.644247 28.26827 30.540339 31.422991 33.494865 36.836349 38.172737 40.444832 42.650017 44.655064 47.462025 48.464531 50.469578 52.407715 56.016628 56.899281 59.103294 62.712208 64.916222 67.120262 69.125275 72.065567 74.337639 76.810295 79.014336 81.218369 82.621643 84.825653 86.830673 89.303329 91.241524 92.563293 94.835358 95.837891">Kolejniprzewoz´nicy(nazwiskolubnazwa,adres,kraj)</tspan>
        <tspan id="tspan158" y="4.94531" x="0 2.8069594 5.0794373 7.0179825 9.2904606 10.49395 12.699573 13.582195 15.854703 18.058714 20.262724 22.535233 26.077669 28.55069 29.954372 32.159966 34.098511 36.371017 37.440796 38.710732 40.914772 43.118782 44.522434 46.726505 49.333233 50.654999 53.662556 55.866566 59.208382 61.412422 63.885464 66.492256 68.697884 70.836639 72.775185 75.047668 76.38446 77.267113 78.537048 79.606827 82.079895 84.352341 86.556412 88.760422 90.964462">NachfolgendeFrachtführer(Name,Anschrift,Land)</tspan>
        <tspan id="tspan160" y="9.89062" x="0 2.6064165 4.8116283 6.8835034 8.8885231 11.098101 13.103149 15.175024 16.043819 18.04884 21.657755 23.595919 25.80113 27.204401 28.540817 29.543324 31.748535 33.151779 36.493263 37.820538 40.627495 42.899593 46.240997 48.450577 50.923233 53.132809 55.404907 57.614456 58.941761 61.213825 63.15202 65.290344 67.763 69.701187 71.973289 74.182861 76.39241 77.528633 78.855942 80.994698">Successivecarriers(Name,address,country)</tspan>
       </text>
      </g>
      <path id="path164" d="m230.0932,5294.53572l4005.31,0l0,3.9453l-4005.31,0l0,-3.9453z" fill="#21401d" fill-rule="nonzero"/>
      <g transform="translate(-136.364 204.546) scale(8.33333 8.33333)" id="g166">
       <text x="0" y="0" id="text170" transform="matrix(1 0 0 -1 53.8636 600.4)" font-weight="bold" font-size="9.89063px" font-family="Helvetica" fill="#21401d" fill-rule="nonzero">
        <tspan id="tspan168" y="0" x="0">4</tspan>
       </text>
       <text x="0" y="0" id="text178" transform="matrix(1 0 0 -1 61.4156 606.348)" font-weight="normal" font-size="3.95625px" font-family="Helvetica" fill="#21401d" fill-rule="nonzero">
        <tspan id="tspan172" y="0" x="0 3.3414645 4.2102966 6.4139705 7.2962422 9.3681688 11.373232 14.982166 17.187428 19.391087 21.663206 22.732611 26.341537 28.279755 30.551872 31.434153 33.637825 35.841499 38.113613 41.053928 43.259186 45.531296 46.400131 49.942196 51.345497 54.620098 55.488922 57.76104 58.629868 60.701805 62.706871 64.910545 67.770943 69.974617 70.245888 72.040451 72.465889 74.045586 76.518242 78.523254 79.859657 82.064857 83.06736 85.540016 87.745216 90.017296 91.086655 93.358719">Miejsceidatazaładowania(miejscowos´c´,kraj,data)</tspan>
        <tspan id="tspan174" y="4.94531" x="0 3.0831041 4.4056549 6.8783073 9.150382 11.355199 14.964089 17.436714 19.641928 23.117092 25.321909 27.526726 30.266798 33.128345 35.33316 37.537971 38.941227 41.146034 43.350861 45.555676 48.897099 52.505997 54.711201 56.983269 60.324718 63.407822 65.612671 66.882225 69.087418 72.428886 73.765259 76.848381 78.251633 79.320992 81.793648 84.065712 86.270531 88.475342 90.747398 93.220055 96.160332 98.365143 99.501396 101.7062 105.04764">OrtundTagderÜbernahmedasGutes(Ort,Land,Datum)</tspan>
        <tspan id="tspan176" y="9.89062" x="0 2.6064384 3.5421331 5.8166103 7.7548261 11.363753 13.569001 15.843493 19.251846 21.526323 23.731586 24.934717 28.40992 29.67951 31.884773 33.889832 34.758663 36.963917 40.572845 42.778107 44.716309 46.990799 49.664047 50.800323 53.005585 56.614513 58.819759 61.094254 63.299496 65.504753 68.846252 70.238449 72.443687 73.312515 75.517754 77.656151 79.861404 82.334091 84.272316 86.546783 88.752029 90.957283 92.093567 93.429993 95.568375 96.743034 97.917686 100.19217 102.46664 103.6413 105.91579">Placeanddatetakingoverthegoods(place,country,data)</tspan>
       </text>
       <text x="0" y="0" id="text182" transform="matrix(1 0 0 -1 292.242 600.4)" font-weight="bold" font-size="9.89063px" font-family="Helvetica" fill="#21401d" fill-rule="nonzero">
        <tspan id="tspan180" y="0" x="0 5.5467391">18</tspan>
       </text>
       <text x="0" y="0" id="text190" transform="matrix(1 0 0 -1 305.34 606.348)" font-weight="normal" font-size="3.95625px" font-family="Helvetica" fill="#21401d" fill-rule="nonzero">
        <tspan id="tspan184" y="0" x="0 2.4726694 4.6779399 6.6830182 7.7524161 9.1557455 11.227269 13.43251 13.783632 15.437332 17.642544 19.914642 20.783438 24.325436 26.597523 28.802734 31.609694 33.88179 36.087002 38.292206 40.564301 41.900719 43.972183 46.244278 49.051239 51.323334 51.639481 53.2635 55.468716 56.471222 58.476238">Zastrzez˙eniaiuwagiprzewoz´nika</tspan>
        <tspan id="tspan186" y="4.94531" x="0 2.6064165 4.8116283 6.1369724 8.4090395 10.616628 12.824215 15.096312 16.031963 17.168186 20.777102 22.98469 25.192276 28.667479 31.407576 33.61282 36.954254 39.159496 40.562767 42.5009 44.772968 46.980556 49.188171 51.395756 55.004673 57.212288 59.484356 62.157585 64.630226 66.033493 68.238708 70.243698 72.448936 73.58519 74.788277 76.995888 79.267952 80.5933 82.800888">VorbehalteundBemerkungenderFrachtführer</tspan>
        <tspan id="tspan188" y="9.89062" x="0 2.8065491 5.0786462 6.4023762 7.7261357 8.6107216 10.882819 12.219234 13.221741 16.563198 17.886927 20.09293 22.097979 24.303221 25.706491 27.644627 29.916723 31.119804 32.004448 34.210453 36.482548 39.823975 42.029976 44.236008 47.844925 50.050926 52.256931 54.261951 56.467983 57.871223 59.809418 62.081486 63.284595 64.153389 66.35939 68.631493">Carrier’sreservationsandobservations</tspan>
       </text>
      </g>
      <path id="path192" d="m230.0932,4948.33572l2027.14,0l0,3.9414l-2027.14,0l0,-3.9414z" fill="#21401d" fill-rule="nonzero"/>
      <g transform="translate(-136.364 204.546) scale(8.33333 8.33333)" id="g194">
       <text x="0" y="0" id="text198" transform="matrix(1 0 0 -1 53.8636 558.832)" font-weight="bold" font-size="9.89063px" font-family="Helvetica" fill="#21401d" fill-rule="nonzero">
        <tspan id="tspan196" y="0" x="0">5</tspan>
       </text>
       <text x="0" y="0" id="text206" transform="matrix(1 0 0 -1 61.4156 564.78)" font-weight="normal" font-size="3.95625px" font-family="Helvetica" fill="#21401d" fill-rule="nonzero">
        <tspan id="tspan200" y="0" x="0 2.472625 4.6778297 5.5588861 6.9079671 7.7640681 9.7691021 11.840604 14.112671 16.315123 19.790289 21.992731 24.195183 26.33354 28.535976 31.877403 34.079842 36.351921 37.421284">Zała˛czonedokumenty</tspan>
        <tspan id="tspan202" y="4.94531" x="0 2.6064017 4.811614 5.8141274 8.0193396 10.224552 11.360784 13.565995 15.838063 16.90744 20.516323 23.32329 25.595358 27.666859 29.872063 33.213486 35.485565 37.690773 38.827011">BeigefügteDokumente</tspan>
        <tspan id="tspan204" y="9.89062" x="0 2.8069522 5.0790343 7.0171986 9.2892809 12.563831 14.835899 17.041111 18.31068 21.652121 23.857332 24.926708 26.062941 28.268152 30.406509 32.611721 34.816933">Documentsattached</tspan>
       </text>
      </g>
      <path id="path208" d="m230.0932,4610.23572l4005.31,0l0,3.9453l-4005.31,0l0,-3.9453z" fill="#21401d" fill-rule="nonzero"/>
      <g transform="translate(-136.364 204.546) scale(8.33333 8.33333)" id="g210">
       <text x="0" y="0" id="text214" transform="matrix(1 0 0 -1 53.8636 518.334)" font-weight="bold" font-size="9.89063px" font-family="Helvetica" fill="#21401d" fill-rule="nonzero">
        <tspan id="tspan212" y="0" x="0">6</tspan>
       </text>
       <text x="0" y="0" id="text222" transform="matrix(1 0 0 -1 61.4156 524.215)" font-weight="normal" font-size="3.95625px" font-family="Helvetica" fill="#21401d" fill-rule="nonzero">
        <tspan id="tspan216" y="0" x="0 2.8069522 5.0790343 7.0171986 9.2892809 12.563857 14.835936 17.041147 19.246346 22.58778 24.859848 26.196241">Cechyinumery</tspan>
        <tspan id="tspan218" y="4.94531" x="0 2.6064017 4.8088527 7.0112963 9.2833786 11.354865 13.560078 14.441133 16.446161 18.648611 20.851055 24.459938 26.662382 28.93445 32.476482 35.349903 37.552353 40.893776 44.235203 46.440414 47.760586">KennzeichenundNammern</tspan>
        <tspan id="tspan220" y="9.89062" x="0 3.3414207 5.5466328 6.883019 8.8880529 12.229502 14.434714 16.706781 20.248816 23.122639 25.32785">MarksandNos</tspan>
       </text>
       <text x="0" y="0" id="text226" transform="matrix(1 0 0 -1 122.096 518.334)" font-weight="bold" font-size="9.89063px" font-family="Helvetica" fill="#21401d" fill-rule="nonzero">
        <tspan id="tspan224" y="0" x="0">7</tspan>
       </text>
       <text x="0" y="0" id="text234" transform="matrix(1 0 0 -1 129.647 524.215)" font-weight="normal" font-size="3.95625px" font-family="Helvetica" fill="#21401d" fill-rule="nonzero">
        <tspan id="tspan228" y="0" x="0 1.1362535 2.0050342 4.2102318 4.4868684 6.2814274 6.7068629 9.6234179 11.628482 13.566689 14.836287 17.041529">Ilos´c´sztuk</tspan>
        <tspan id="tspan230" y="4.94531" x="0 2.6064165 4.811614 6.9499779 9.1551752 11.360388 13.56559 15.837643 18.042854 20.6492 23.389343 25.59454 27.59956 29.671068 31.676088 32.745457 35.01754 37.08902 39.094051">AnzahlderPackstücke</tspan>
        <tspan id="tspan232" y="9.89062" x="0 2.8630922 5.069447 8.4108381 10.617178 12.823519 15.563561 17.769901 20.242531 22.514555 24.719723 26.724712 28.662832 30.869188 33.141212 35.347565">Numberofpackages</tspan>
       </text>
       <text x="0" y="0" id="text238" transform="matrix(1 0 0 -1 190.328 518.334)" font-weight="bold" font-size="9.89063px" font-family="Helvetica" fill="#21401d" fill-rule="nonzero">
        <tspan id="tspan236" y="0" x="0">8</tspan>
       </text>
       <text x="0" y="0" id="text246" transform="matrix(1 0 0 -1 197.88 524.215)" font-weight="normal" font-size="3.95625px" font-family="Helvetica" fill="#21401d" fill-rule="nonzero">
        <tspan id="tspan240" y="0" x="0 2.6064603 4.8117018 7.0838132 9.1553364 9.5432625 11.360717 14.835891 17.037529 19.309582 21.511234 23.649584 25.851221 28.65818 30.930248 33.13546 34.015713">Sposo´bopakowania</tspan>
        <tspan id="tspan242" y="4.94531" x="0 2.6064458 3.9428759 6.4155798 8.6876917 10.894925 13.635028 16.308329 18.580456 19.905401 22.112606 24.384731 26.322926 28.327988 30.535221 32.742455">ArtderVerpackung</tspan>
        <tspan id="tspan244" y="9.89062" x="0 3.3414207 5.5466037 6.682857 8.8880692 11.160137 14.702151 16.974234 19.44689 21.652088 23.857285 25.86232 27.800484 28.80299 31.075071">Methodofpacking</tspan>
       </text>
       <text x="0" y="0" id="text250" transform="matrix(1 0 0 -1 258.627 518.334)" font-weight="bold" font-size="9.89063px" font-family="Helvetica" fill="#21401d" fill-rule="nonzero">
        <tspan id="tspan248" y="0" x="0">9</tspan>
       </text>
       <text x="0" y="0" id="text258" transform="matrix(1 0 0 -1 266.111 524.215)" font-weight="normal" font-size="3.95625px" font-family="Helvetica" fill="#21401d" fill-rule="nonzero">
        <tspan id="tspan252" y="0" x="0 2.8647621 5.0727868 7.344913 9.2831354 11.49116 13.763274 14.966031 17.238157 20.045147 22.250418 23.653688">Rodzajtowaru</tspan>
        <tspan id="tspan254" y="4.94531" x="0 2.6064165 4.8784842 6.9503884 9.1556005 10.03547 12.040489 14.241747 16.443033 18.715101 20.916357 24.525242 26.726528 28.927784 32.269241 35.348785 37.620884 38.823963 41.096058">BezeichnungdesGutes</tspan>
        <tspan id="tspan256" y="9.89062" x="0 2.8635023 5.0703259 6.2065792 8.4117918 9.815033 13.357092 15.563886 18.036543 19.172766 21.377979 24.986893 27.192106 29.464172 31.670967 33.877762">Natureofthegoods</tspan>
       </text>
       <text x="0" y="0" id="text262" transform="matrix(1 0 0 -1 321.913 518.334)" font-weight="bold" font-size="9.89063px" font-family="Helvetica" fill="#21401d" fill-rule="nonzero">
        <tspan id="tspan260" y="0" x="0 5.5467391">10</tspan>
       </text>
       <text x="0" y="0" id="text270" transform="matrix(1 0 0 -1 335.011 524.215)" font-weight="normal" font-size="3.95625px" font-family="Helvetica" fill="#21401d" fill-rule="nonzero">
        <tspan id="tspan264" y="0" x="0 2.807018 5.079144 8.4079227 10.613194 13.353309 15.291531 16.42462 18.62989 19.899504 21.837698 23.849104 25.052242 27.063648 29.075026 31.146959 33.35223">Numerstatystyczny</tspan>
        <tspan id="tspan266" y="4.94531" x="0 2.6064458 3.8095548 6.0092297 7.1455126 8.0237999 10.162209 11.231606 12.10046 14.238839 16.438515 18.638189 21.979654 25.321148 27.526419">Statistiknummer</tspan>
        <tspan id="tspan268" y="9.89062" x="0 2.6064458 3.8095548 6.0104895 7.1467724 8.0262613 10.164669 11.234097 12.102921 14.2413 16.446571 18.651833 20.857103 23.129229 26.470694 28.671598 30.872505">Statisticalnumber</tspan>
       </text>
       <text x="0" y="0" id="text274" transform="matrix(1 0 0 -1 391.148 518.334)" font-weight="bold" font-size="9.89063px" font-family="Helvetica" fill="#21401d" fill-rule="nonzero">
        <tspan id="tspan272" y="0" x="0 5.5467391">11</tspan>
       </text>
       <text x="0" y="0" id="text282" transform="matrix(1 0 0 -1 404.246 524.215)" font-weight="normal" font-size="3.95625px" font-family="Helvetica" fill="#21401d" fill-rule="nonzero">
        <tspan id="tspan276" y="0" x="0 3.6757545 5.9478221 8.1566086 11.765524 13.97428 15.300823 17.572891 18.64226 19.911842 23.32016 27.530409 29.668758">Wagabruttowkg</tspan>
        <tspan id="tspan278" y="4.94531" x="0 2.6064165 3.9428027 6.1452608 7.4148154 8.4841843 10.756281 12.958739 15.161168 18.020334 19.022869 20.961035 23.233101 25.705757 26.5868 30.128859 32.133877">Bruttogewichtinkg</tspan>
        <tspan id="tspan280" y="9.89062" x="0 3.0807164 4.4009018 6.6729984 8.878211 12.219667 15.093072 17.29553 18.298037 20.500494 22.702953 25.17561 26.05665 29.665565 31.603701">Groosweightinkg</tspan>
       </text>
       <text x="0" y="0" id="text286" transform="matrix(1 0 0 -1 470.273 518.334)" font-weight="bold" font-size="9.89063px" font-family="Helvetica" fill="#21401d" fill-rule="nonzero">
        <tspan id="tspan284" y="0" x="0 5.5467687">12</tspan>
       </text>
       <text x="0" y="0" id="text294" transform="matrix(1 0 0 -1 483.371 524.215)" font-weight="normal" font-size="3.95625px" font-family="Helvetica" fill="#21401d" fill-rule="nonzero">
        <tspan id="tspan288" y="0" x="0 3.0736265 5.2689071 6.1428585 6.7570467 8.4198294 9.6224985 11.82774 12.105006 13.832653 14.258452 17.175024 21.385303 24.726799">Obje˛tos´c´wm3</tspan>
        <tspan id="tspan290" y="4.94531" x="0 2.8069594 6.1483655 7.2846189 9.4898605 11.761899 15.303605 18.644981">Umfangm3</tspan>
        <tspan id="tspan292" y="9.89062" x="0 2.6064165 4.8116283 5.8141055 8.0193176 11.360811 14.835954 15.838518 19.246809 22.588243">Volumeinm3</tspan>
       </text>
      </g>
      <path id="path296" d="m2505.0462,2883.36572l3.9453,0l0,1730.81l-3.9453,0l0,-1730.81z" fill="#21401d" fill-rule="nonzero"/>
      <path id="path298" d="m3082.1462,2883.36572l3.9453,0l0,1730.81l-3.9453,0l0,-1730.81z" fill="#21401d" fill-rule="nonzero"/>
      <path id="path300" d="m3659.0062,2883.36572l3.9453,0l0,1730.81l-3.9453,0l0,-1730.81z" fill="#21401d" fill-rule="nonzero"/>
      <path id="path302" d="m230.0932,3102.18572l2274.49,0l0,3.9453l-2274.49,0l0,-3.9453z" fill="#21401d" fill-rule="nonzero"/>
      <g transform="translate(-136.364 204.546) scale(8.33333 8.33333)" id="g304">
       <text x="0" y="0" id="text332" transform="matrix(1 0 0 -1 50.9236 343.244)" font-weight="normal" font-size="3.95625px" font-family="Helvetica" fill="#21401d" fill-rule="nonzero">
        <tspan id="tspan306" y="0" x="0 2.8069558 5.0121717 8.3535881 10.625663 13.298874 16.172688">NumurUN</tspan>
        <tspan id="tspan308" y="4.94531" x="0 2.8069558 5.0121717 8.3535881 11.695002 13.967084 16.640295 19.514109">NummerUN</tspan>
        <tspan id="tspan310" y="9.89062" x="0 2.8069558 5.0121717 8.3535881 10.625663 12.830875 15.570942 18.377901">NumberUN</tspan>
        <tspan id="tspan312" y="-0.00001" x="54.398399 56.937946 59.210014 60.413116 61.816364 65.090958 67.363022 69.568245 71.773445 73.778481 76.251137">Patrzpunkt9</tspan>
        <tspan id="tspan314" y="4.9453" x="54.398399 56.937946 59.210014 61.281517 62.417747 64.355919 65.625481 68.432434 69.835678 70.90506">Bez.s.Nr.9</tspan>
        <tspan id="tspan316" y="9.89061" x="54.398399 56.601204 58.803997 61.006802 64.348206 66.620247 68.825417 69.706818 71.909622 74.38224">Lookpoint9</tspan>
        <tspan id="tspan318" y="-0.00002" x="108.7968 111.33636 112.33887 114.54407 116.5491">Klasa</tspan>
        <tspan id="tspan320" y="4.94529" x="108.7968 111.33639 112.33893 114.5442 116.54925 118.55432">Klasse</tspan>
        <tspan id="tspan322" y="9.8906" x="108.7968 111.60376 112.47254 114.67775 116.8161">Class</tspan>
        <tspan id="tspan324" y="-0.00003" x="163.19521 166.2791 167.60243 169.80804 172.08011 175.62213 177.8942 180.09979 182.10483 184.31044 187.11739 189.38947 191.59467 192.59717">Grupapakowania</tspan>
        <tspan id="tspan326" y="4.94528" x="163.19521 165.7347 168.00674 169.33083 171.53716 173.8092 175.88104 177.88603 180.09238 182.29875 185.90759 188.11392 189.51715 191.72351 193.92986 196.1362">Verpackunggruppe</tspan>
        <tspan id="tspan328" y="9.89059" x="163.19521 165.66783 167.87302 171.34818 173.55338 175.75859 177.89694 179.8351 180.70392 182.97597 186.51799 188.72319 190.12643 192.33163 194.53683">Thepackinggroup</tspan>
        <tspan id="tspan330" y="-0.00004" x="217.5936 218.93004 221.53648 224.47681 227.35068 228.95459">(ADR*)</tspan>
       </text>
      </g>
      <path id="path334" d="m683.4992,2883.83572l3.94531,0l0,222.297l-3.94531,0l0,-222.297z" fill="#21401d" fill-rule="nonzero"/>
      <path id="path336" d="m1136.6862,2883.83572l3.9453,0l0,222.297l-3.9453,0l0,-222.297z" fill="#21401d" fill-rule="nonzero"/>
      <path id="path338" d="m1590.0962,2883.83572l3.9453,0l0,222.297l-3.9453,0l0,-222.297z" fill="#21401d" fill-rule="nonzero"/>
      <path id="path340" d="m2043.5162,2883.83572l3.9453,0l0,222.297l-3.9453,0l0,-222.297z" fill="#21401d" fill-rule="nonzero"/>
      <path id="path342" d="m230.0932,2879.42572l4005.31,0l0,3.9453l-4005.31,0l0,-3.9453z" fill="#21401d" fill-rule="nonzero"/>
      <path id="path344" d="m2257.9162,1490.63572l3.9453,0l0,1392.73l-3.9453,0l0,-1392.73z" fill="#21401d" fill-rule="nonzero"/>
      <g transform="translate(-136.364 204.546) scale(8.33333 8.33333)" id="g346">
       <text x="0" y="0" id="text350" transform="matrix(1 0 0 -1 48.9183 310.631)" font-weight="bold" font-size="9.89063px" font-family="Helvetica" fill="#21401d" fill-rule="nonzero">
        <tspan id="tspan348" y="0" x="0 5.5467649">13</tspan>
       </text>
       <text x="0" y="0" id="text358" transform="matrix(1 0 0 -1 62.0171 316.512)" font-weight="normal" font-size="3.95625px" font-family="Helvetica" fill="#21401d" fill-rule="nonzero">
        <tspan id="tspan352" y="0" x="0 1.1362315 3.3414435 5.346478 6.5495725 7.876862 10.148944 12.087109 14.092135 15.094642 18.569807 20.779377 22.988939 25.198511 27.470585 30.410873 32.415894">Instrukcjenadawcy</tspan>
        <tspan id="tspan354" y="4.94531" x="0 2.6064017 4.811614 7.8187585 10.023971 10.9074 12.845564 15.117639 17.322454 19.527266 21.799332 25.341368 27.613434 29.818251 33.159698 35.899826 38.105038 40.043201 42.315277 44.520096 46.724911 48.996986 50.319523">AnweisungendesAbsenders</tspan>
        <tspan id="tspan356" y="9.89062" x="0 2.6063652 4.8127346 7.0190821 9.2911205 11.497482 12.821571 13.82404 17.165449 18.050417 20.256779 22.261768 23.531294 24.855368 27.061737 29.066721 30.136045 31.138529 33.410561 35.616924">Sender’sinstructions</tspan>
       </text>
       <text x="0" y="0" id="text362" transform="matrix(1 0 0 -1 292.241 310.631)" font-weight="bold" font-size="9.89063px" font-family="Helvetica" fill="#21401d" fill-rule="nonzero">
        <tspan id="tspan360" y="0" x="0 5.5467391">19</tspan>
       </text>
       <text x="0" y="0" id="text370" transform="matrix(1 0 0 -1 305.339 316.512)" font-weight="normal" font-size="3.95625px" font-family="Helvetica" fill="#21401d" fill-rule="nonzero">
        <tspan id="tspan364" y="0" x="0 2.6064165 4.8116283 6.8835034 8.0197573 10.222977 12.495074 14.698323 17.55831 18.493961 20.766027 22.969278 23.85111 27.460026 29.398159 31.60141 33.873505 35.811699 36.814175 39.017426 39.899288 42.171383">Postanowieniaspecjalne</tspan>
        <tspan id="tspan366" y="4.94531" x="0 2.6064165 4.8116283 6.8835034 9.1556005 11.361604 13.567607 15.839704 17.163464 20.638638 23.31188 25.583977 26.907736 29.113739 29.998354 32.270424 34.476456 36.682457 38.085728 40.291733 42.497734 44.769833 46.975834">BesondereVereinbarungen</tspan>
        <tspan id="tspan368" y="9.89062" x="0 2.6064165 4.8116283 7.0168405 9.1551905 10.038985 12.244256 14.449458 16.721525 18.926739 20.249706 22.521774 24.726986 28.068422 30.273634 32.478848 33.615101">Specialagreements</tspan>
       </text>
      </g>
      <path id="path372" d="m2257.9162,2529.03572l1978.13,0l0,-790.81l-1978.13,0l0,790.81zm16.15,-16.14l0,-758.51l1945.82,0l0,758.5" fill="#21401d" fill-rule="nonzero"/>
      <g transform="translate(-136.364 204.546) scale(8.33333 8.33333)" id="g374">
       <text x="0" y="0" id="text378" transform="matrix(1 0 0 -1 292.241 268.061)" font-weight="bold" font-size="9.89063px" font-family="Helvetica" fill="#21401d" fill-rule="nonzero">
        <tspan id="tspan376" y="0" x="0 5.5467391">20</tspan>
       </text>
       <text x="0" y="0" id="text402" transform="matrix(1 0 0 -1 305.339 274.009)" font-weight="normal" font-size="3.95625px" font-family="Helvetica" fill="#21401d" fill-rule="nonzero">
        <tspan id="tspan380" y="0" x="0 2.8065491 6.4154325 8.4204817 10.623731 12.82698 13.708841 15.912062 18.050411 20.25366 22.525757 23.327667">Dozapłacenia</tspan>
        <tspan id="tspan382" y="4.94531" x="0 2.475013 5.9501867 8.0220623 10.227304 12.484752 13.353547 15.55873 19.167673 21.105808 23.31102 26.66432">Zuzahlenvom:</tspan>
        <tspan id="tspan384" y="9.89062" x="0 2.47264 5.947814 8.1498909 11.758775 13.960823 16.162901 17.04356 20.652445 22.857656">Tobepaidby</tspan>
        <tspan id="tspan386" y="-0.00001" x="51.1908 53.997761 56.269855 58.479023 60.68819 63.554123 65.625999">Nadawca</tspan>
        <tspan id="tspan388" y="4.9453" x="51.1908 53.797218 56.00243 58.074303 60.346401 62.551613 64.756828 67.028923">Absender</tspan>
        <tspan id="tspan390" y="9.89061" x="51.1908 53.797218 56.00243 58.207642 60.412823 62.684921">Sender</tspan>
        <tspan id="tspan392" y="2.47264" x="117.5517 121.42767 123.63294 124.50176 126.70704 127.97662 130.78365 132.65498 136.33076 138.60289 140.80817 142.14461 144.41673 146.62201">Waluta/Währung</tspan>
        <tspan id="tspan394" y="7.41795" x="124.10061 125.97195 128.84579 131.05385 132.37961 133.7829 135.99092 138.19897 140.33736">/Currency</tspan>
        <tspan id="tspan396" y="-0.00002" x="166.87122 170.0121 172.21416 174.4162 175.29683 177.49893 178.90221 180.97365">Odbiorca</tspan>
        <tspan id="tspan398" y="4.94529" x="166.87122 169.47763 172.81906 175.02428 176.29382 178.49904 180.7711 182.97632 185.18159">Empfänger</tspan>
        <tspan id="tspan400" y="9.8906" x="166.87122 169.73471 171.94153 174.14833 176.15338 177.15588 179.36269 181.56947 183.84154">Consignee</tspan>
       </text>
      </g>
      <path id="path404" d="m2801.8262,1746.11572l3.9453,0l0,782.914l-3.9453,0l0,-782.914z" fill="#21401d" fill-rule="nonzero"/>
      <path id="path406" d="m3098.1562,1746.11572l3.9414,0l0,782.914l-3.9414,0l0,-782.914z" fill="#21401d" fill-rule="nonzero"/>
      <path id="path408" d="m3271.4962,1746.11572l16.2422,0l0,782.914l-16.2422,0l0,-782.914z" fill="#21401d" fill-rule="nonzero"/>
      <path id="path410" d="m3518.6162,1737.54572l16.2422,0l0,651.113l-16.2422,0l0,-651.113z" fill="#21401d" fill-rule="nonzero"/>
      <path id="path412" d="m3765.9762,1746.11572l16.2422,0l0,782.914l-16.2422,0l0,-782.914z" fill="#21401d" fill-rule="nonzero"/>
      <path id="path414" d="m4062.7562,2525.08572l16.2422,0l0,3.9453l-16.2422,0l0,-3.9453z" fill="#21401d" fill-rule="nonzero"/>
      <path id="path416" d="m2257.9162,2384.70572l1978.17,0l0,3.9453l-1978.17,0l0,-3.9453z" fill="#21401d" fill-rule="nonzero"/>
      <g transform="translate(-136.364 204.546) scale(8.33333 8.33333)" id="g418">
       <text x="0" y="0" id="text424" transform="matrix(1 0 0 -1 291.239 257.168)" font-weight="normal" font-size="3.95625px" font-family="Helvetica" fill="#21401d" fill-rule="nonzero">
        <tspan id="tspan420" y="0" x="0 2.5976567 3.9340138 6.0727444 8.2779274 11.093148 13.365187 13.679071 15.303095 17.575163 20.515463 22.253036 24.725676 26.062092 28.334188 30.406094 32.611275">Przewoz´ne/Fracht</tspan>
        <tspan id="tspan422" y="4.94531" x="0 1.7375731 4.6778626 6.9499593 8.2788458 9.6077318 10.476527 12.687687 14.959754 18.501781 20.50683 22.717989 24.990057 26.318943 28.530073 30.80217">/Carriagecharges</tspan>
       </text>
      </g>
      <path id="path426" d="m2801.8262,2286.32572l1434.03,0l0,3.9414l-1434.03,0l0,-3.9414z" fill="#21401d" fill-rule="nonzero"/>
      <g transform="translate(-136.364 204.546) scale(8.33333 8.33333)" id="g428">
       <text x="0" y="0" id="text434" transform="matrix(1 0 0 -1 291.239 245.34)" font-weight="normal" font-size="3.95625px" font-family="Helvetica" fill="#21401d" fill-rule="nonzero">
        <tspan id="tspan430" y="0" x="0 2.6064165 4.8116283 7.0168405 8.0193472 9.155571 10.024396 12.096271 14.368368 15.437737 18.177816 19.915417 22.588688 23.991959 27.333364 29.538578 31.543596 33.61512 34.483887 36.689098 38.961197 41.166409 43.371651 45.643715">Bonifikaty/Ermässigungen</tspan>
        <tspan id="tspan432" y="4.94531" x="0 2.8069594 5.0790563 7.2842684 9.489481 11.4945 12.697609 13.566375 15.838472 18.043684">Deductions</tspan>
       </text>
      </g>
      <path id="path436" d="m2257.9162,2184.91572l1978.17,0l0,6.0352l-1978.17,0l0,-6.0352z" fill="#21401d" fill-rule="nonzero"/>
      <g transform="translate(-136.364 204.546) scale(8.33333 8.33333)" id="g438">
       <text x="0" y="0" id="text444" transform="matrix(1 0 0 -1 291.239 233.444)" font-weight="normal" font-size="3.95625px" font-family="Helvetica" fill="#21401d" fill-rule="nonzero">
        <tspan id="tspan440" y="0" x="0 2.6064165 4.8116283 5.8141346 8.0193472 10.892763 12.697221 15.169861 17.441929 19.380121 21.385141 23.590353 24.59289 26.798101 29.070169 31.877169">Saldo/Zuschläge/</tspan>
        <tspan id="tspan442" y="4.94531" x="0 2.6064165 4.8116283 5.8141346 8.0193472 10.224559 12.229608">Balance</tspan>
       </text>
      </g>
      <path id="path446" d="m2801.8262,2104.62572l1434.03,0l0,3.9453l-1434.03,0l0,-3.9453z" fill="#21401d" fill-rule="nonzero"/>
      <g transform="translate(-136.364 204.546) scale(8.33333 8.33333)" id="g448">
       <text x="0" y="0" id="text454" transform="matrix(1 0 0 -1 291.239 223.553)" font-weight="normal" font-size="3.95625px" font-family="Helvetica" fill="#21401d" fill-rule="nonzero">
        <tspan id="tspan450" y="0" x="0 2.8069594 5.0790563 7.2850595 8.1696749 10.375678 11.645262 14.251599 16.056057 18.918798 21.12483 23.396898 25.602901 27.808933 30.014965 32.287064 34.493065 36.69907 38.971138 40.294895 42.5009">Dopłaty/Nebengebühren</tspan>
        <tspan id="tspan452" y="4.94531" x="0 1.7375731 4.4777002 6.6829123 8.8881245 11.093395 11.977191 14.249288 17.590694 20.063381 22.135256 24.340498 26.612566 27.935505 30.140717 32.412815">/Supplem.charges</tspan>
       </text>
      </g>
      <path id="path456" d="m2801.8262,2022.25572l1434.03,0l0,3.9453l-1434.03,0l0,-3.9453z" fill="#21401d" fill-rule="nonzero"/>
      <g transform="translate(-136.364 204.546) scale(8.33333 8.33333)" id="g458">
       <text x="0" y="0" id="text464" transform="matrix(1 0 0 -1 291.239 213.663)" font-weight="normal" font-size="3.95625px" font-family="Helvetica" fill="#21401d" fill-rule="nonzero">
        <tspan id="tspan460" y="0" x="0 2.6064165 4.8116283 6.9499784 8.888113 10.024366 13.365823 15.5742 17.782576 20.054672 22.263079 23.466158 25.471178 27.676418 30.541533">Kosztydodatkowe</tspan>
        <tspan id="tspan462" y="4.94531" x="0 1.7375414 4.4776397 6.6804199 8.8832293 10.888249 12.0913 12.960036 15.162847 17.434885 20.10808 21.845652 25.187029 26.189507 28.194525 30.132631 32.404671 33.34029 34.221714 36.493752 38.69656 40.899372 43.17141 45.374191">/Sonstiges/Miscellaneous</tspan>
       </text>
      </g>
      <path id="path466" d="m2257.9162,1921.55572l1978.17,0l0,6.0313l-1978.17,0l0,-6.0313z" fill="#21401d" fill-rule="nonzero"/>
      <g transform="translate(-136.364 204.546) scale(8.33333 8.33333)" id="g468">
       <text x="0" y="0" id="text472" transform="matrix(1 0 0 -1 291.239 201.834)" font-weight="normal" font-size="3.95625px" font-family="Helvetica" fill="#21401d" fill-rule="nonzero">
        <tspan id="tspan470" y="0" x="0 2.8069594 5.0790563 7.2842684 9.2892876 11.4945 12.497036 14.702248 16.707268 18.645432 20.917528 23.12274 24.125246">Ubezpieczenie</tspan>
       </text>
      </g>
      <path id="path474" d="m2257.9162,1855.41572l1978.17,0l0,6.0312l-1978.17,0l0,-6.0312z" fill="#21401d" fill-rule="nonzero"/>
      <g transform="translate(-136.364 204.546) scale(8.33333 8.33333)" id="g476">
       <text x="0" y="0" id="text482" transform="matrix(1 0 0 -1 291.239 193.882)" font-weight="normal" font-size="3.95625px" font-family="Helvetica" fill="#21401d" fill-rule="nonzero">
        <tspan id="tspan478" y="0" x="0 2.8069594 5.0790563 7.0171909 9.2892885 13.365781 15.103381 18.3111 20.516312 22.533607 24.738819 28.073515 29.212553 31.284428 33.489639 36.824337 40.159035">Razem/Gesamtsumme</tspan>
        <tspan id="tspan480" y="4.94531" x="0 1.7375731 4.2102132 6.4154253 7.685009 9.8902502 12.095452 13.231676 16.840591 19.045803 22.520977 24.726189 26.931431 27.933937">/Totaltobepaid</tspan>
       </text>
      </g>
      <path id="path484" d="m230.0932,1972.59572l2027.14,0l0,3.9453l-2027.14,0l0,-3.9453z" fill="#21401d" fill-rule="nonzero"/>
      <g transform="translate(-136.364 204.546) scale(8.33333 8.33333)" id="g486">
       <text x="0" y="0" id="text490" transform="matrix(1 0 0 -1 48.9183 201.834)" font-weight="bold" font-size="9.89063px" font-family="Helvetica" fill="#21401d" fill-rule="nonzero">
        <tspan id="tspan488" y="0" x="0 5.5467649">14</tspan>
       </text>
       <text x="0" y="0" id="text502" transform="matrix(1 0 0 -1 62.0171 207.715)" font-weight="normal" font-size="3.95625px" font-family="Helvetica" fill="#21401d" fill-rule="nonzero">
        <tspan id="tspan492" y="0" x="0 2.6064017 4.811614 6.9499707 8.0193472 10.291414 12.496239 14.701056 17.562601 18.565107 20.769932 22.974749 23.858177 27.46707 29.671879 31.876696 34.148769 36.353588 36.631386 38.359055 40.564266 41.433052 44.975086 47.247154 48.583542 50.588577 52.793789 55.734077 58.006153 58.320911 59.94492 62.217003 64.422195 66.627396">Postanowieniaodnos´nieprzewoz´nego</tspan>
        <tspan id="tspan494" y="4.94531" x="0 2.472625 3.8090112 6.0810938 8.0192575 10.291332 11.360702 13.499059 15.702292 17.905527 18.787374 21.059443 23.262676 25.465912 27.470945 29.674181 31.877422 34.88456 37.087795 37.96965 39.974674 42.17791 44.381145 46.584381 48.856445">Frechtzahlungsanweisungen</tspan>
        <tspan id="tspan496" y="9.89062" x="0 1.1362315 3.3414435 5.346478 6.5495725 7.8760781 10.148153 12.086317 13.222548 14.225062 16.430275 19.905441 22.110645 25.452103 26.721663 30.129972 32.402039 34.610821 36.682709 38.954792 42.296211 44.504978 46.713757 49.186394 50.322639 52.527851 55.267921 57.272957 59.481728 60.808228 62.211483 63.080276 65.289047 67.497795">Instructionastopayementforcarriage</tspan>
        <tspan id="tspan498" y="16.77421" x="0 2.6064384 3.9428759 6.0812693 8.2865181 11.160377 13.365633 13.679996 15.304019 17.576088 21.118111 23.123144 25.328758 27.600826 28.536478 30.808552 32.746723 35.018799 37.224407 40.031361 41.902668 43.038898 44.362232 46.567848 48.238564 50.043007 52.905357 55.110966 56.434307 57.837566 58.721779 60.927387 63.132992 66.74189 68.947487 71.219536 72.103775">Przewoz´nezapłacone/frei/Carriagepaid</tspan>
        <tspan id="tspan500" y="21.71952" x="0 2.6064384 3.9428759 6.0812693 8.2865181 11.160377 13.365633 13.679996 15.304019 17.576088 21.118111 23.390192 24.272831 26.476849 28.838337 31.042362 31.925001 34.129025 36.13406 38.338085 40.542103 43.549255 45.286839 48.227127 50.431145 51.567379 52.88913 55.161205 56.765057 58.50264 61.442928 63.64814 65.051384 66.387772 67.270409 69.474434 71.746483 75.288513 76.424751 78.629951 80.033188 82.840149 85.044174 86.447418">Przewoz´nenieopłacone/Unfrei/Carriageforward</tspan>
       </text>
      </g>
      <path id="path504" d="m230.0932,1733.82572l4005.31,0l0,3.9414l-4005.31,0l0,-3.9414z" fill="#21401d" fill-rule="nonzero"/>
      <g transform="translate(-136.364 204.546) scale(8.33333 8.33333)" id="g506">
       <text x="0" y="0" id="text510" transform="matrix(1 0 0 -1 48.9183 173.098)" font-weight="bold" font-size="9.89063px" font-family="Helvetica" fill="#21401d" fill-rule="nonzero">
        <tspan id="tspan508" y="0" x="0 5.5467649">21</tspan>
       </text>
       <text x="0" y="0" id="text518" transform="matrix(1 0 0 -1 62.0171 179.046)" font-weight="normal" font-size="3.95625px" font-family="Helvetica" fill="#21401d" fill-rule="nonzero">
        <tspan id="tspan512" y="0" x="0 3.7422221 5.8141117 7.8191457 8.8885069 11.163358 14.094932 14.963727 17.168932 19.374144 22.983036 93.086197 95.291397 97.566231 98.435028">Wystawionowdnia</tspan>
        <tspan id="tspan514" y="4.94531" x="0 2.6064017 4.811614 6.9499707 9.152422 11.354865 12.491096 14.693541 16.096798 17.166159 18.168673 20.371117 22.843767 23.724817 95.2313 97.433746">Ausgefertigtinam</tspan>
        <tspan id="tspan516" y="9.89062" x="0 2.6064384 4.6779695 5.8142447 8.0194931 10.291612 11.160444 12.096124 14.101195 16.306444 18.578562 22.120636 22.989462 96.434196 98.639458">Establishedinon</tspan>
       </text>
       <text x="0" y="0" id="text522" transform="matrix(1 0 0 -1 292.241 173.098)" font-weight="bold" font-size="9.89063px" font-family="Helvetica" fill="#21401d" fill-rule="nonzero">
        <tspan id="tspan520" y="0" x="0 5.5467391">15</tspan>
       </text>
       <text x="0" y="0" id="text526" transform="matrix(1 0 0 -1 305.34 175.103)" font-weight="normal" font-size="3.95625px" font-family="Helvetica" fill="#21401d" fill-rule="nonzero">
        <tspan id="tspan524" y="0" x="0 2.47264 4.676651 6.8807206 7.7633438 10.03544 11.10478 14.111965 15.849539 18.789827 20.995041 23.000059 25.005108 27.210321 28.532087 30.670847 31.740217 34.012283 35.08168 36.351265 38.555275 40.759289 43.031384 45.838356 47.709667 50.516624 52.788723 54.726856 58.335739 60.53981 64.148697 66.352707 68.624802 69.507423 70.309364 72.448097 74.653305">Zapłata/Rückerstattuung/Cashondeliver</tspan>
       </text>
      </g>
      <path id="path528" d="m230.0932,1486.46572l1285.29,0l0,3.9453l-1285.29,0l0,-3.9453z" fill="#21401d" fill-rule="nonzero"/>
      <path id="path530" d="m1511.6762,748.56572l3.9453,0l0,741.844l-3.9453,0l0,-741.844z" fill="#21401d" fill-rule="nonzero"/>
      <path id="path532" d="m1516.0762,1490.40572l1285.33,0l0,-741.794l-1285.33,0l0,741.794zm16.15,-725.637l1253.03,0l0,709.497l-1253.03,0" fill="#21401d" fill-rule="nonzero"/>
      <path id="path534" d="m230.0932,1486.46572l4005.31,0l0,3.9453l-4005.31,0l0,-3.9453z" fill="#21401d" fill-rule="nonzero"/>
      <path id="path536" d="m230.0932,1474.16572l2571.28,0l0,16.2461l-2571.28,0l0,-16.2461z" fill="#21401d" fill-rule="nonzero"/>
      <g transform="translate(-136.364 204.546) scale(8.33333 8.33333)" id="g538">
       <text x="0" y="0" id="text542" transform="matrix(1 0 0 -1 48.9183 142.491)" font-weight="bold" font-size="9.89063px" font-family="Helvetica" fill="#21401d" fill-rule="nonzero">
        <tspan id="tspan540" y="0" x="0 5.5467649">22</tspan>
       </text>
       <text x="0" y="0" id="text546" transform="matrix(1 0 0 -1 203.226 142.491)" font-weight="normal" font-size="9.89063px" font-family="Helvetica" fill="#21401d" fill-rule="nonzero">
        <tspan id="tspan544" y="0" x="0 5.5467539">23</tspan>
       </text>
       <text x="0" y="0" id="text550" transform="matrix(1 0 0 -1 357.533 142.491)" font-weight="bold" font-size="9.89063px" font-family="Helvetica" fill="#21401d" fill-rule="nonzero">
        <tspan id="tspan548" y="0" x="0 5.5467391">24</tspan>
       </text>
       <text x="0" y="0" id="text582" transform="matrix(1 0 0 -1 370.631 148.372)" font-weight="normal" font-size="3.95625px" font-family="Helvetica" fill="#21401d" fill-rule="nonzero">
        <tspan id="tspan552" y="0" x="0 2.5395315 3.9427733 6.014678 8.2867451 10.224938 12.229988 13.232465 15.170658 15.780011 18.779228 20.984442 22.120695 23.457081 25.46172 27.533594 30.875031 33.080242 35.352341 38.159309 40.030621 43.104626 45.376694 47.84935 50.054592 53.396027 55.601212 56.737492 58.942703 61.147888 63.419983 65.625198">Przesyłke˛otrzymano/Gutempfangen</tspan>
        <tspan id="tspan554" y="4.94531" x="0 1.7375731 4.9453206 7.1473689 9.3494463 11.621514 14.896113 16.299385 18.501432 20.506453 21.387142 23.459017 25.661066">/Goodsrecived</tspan>
        <tspan id="tspan556" y="16.77421" x="-12.1627 -8.8212643 -7.9524693 -5.6803722 -4.8784618 -2.7401123 -0.73506355 1.4701486 4.2770786 6.5491757 6.8268528 8.6214437 9.0459251 54.131351 56.336563 58.608658 59.410568">Miejscowos´c´dnia</tspan>
        <tspan id="tspan558" y="21.71952" x="-12.1627 -9.0218372 -7.6854215 56.136013 58.341225">Ortam</tspan>
        <tspan id="tspan560" y="26.66483" x="-12.1627 -9.5562544 -8.5537186 -6.3484483 -4.34337 57.205593 59.410835">Placeon</tspan>
        <tspan id="tspan562" y="71.17263" x="-322.7157 -320.10928 -317.90408 -315.63199 -313.42679 -312.42429 -309.08282 -306.87762 -304.87259 -303.80322 -301.59799 -298.25659 -295.9845 -293.7793 -291.5741 -289.302 -287.0968 -284.89157 -282.61951 -279.67923 -277.67419">Podpisistempelnadawcy</tspan>
        <tspan id="tspan564" y="76.11794" x="-322.7157 -319.8494 -317.63983 -316.5036 -314.29837 -312.9711 -310.83273 -308.89456 -306.6225 -305.2952 -304.40701 -303.20395 -300.73129 -298.45923 -296.254 -292.77884 -290.0387 -288.96933 -286.76413 -283.4227 -281.1506 -278.94104 -276.73584 -274.46378 -272.25858 -268.91711 -266.17697 -263.96744 -262.02927 -259.75717 -257.54761 -255.33804 -253.06598 -251.73868">UnterschriftundStempeldesAbsenders</tspan>
        <tspan id="tspan566" y="81.06325" x="-322.7157 -320.10928 -319.10678 -316.89999 -314.69321 -312.42111 -311.35175 -309.07965 -307.75513 -304.14624 -301.93945 -299.73267 -296.25751 -294.186 -293.04977 -290.84296 -287.50156 -283.89267 -281.68744 -279.21481 -278.07858 -275.87177 -272.26288 -270.25784 -268.05106 -265.84427 -263.63748 -261.36542">Signatureandstampofthesender</tspan>
        <tspan id="tspan568" y="71.17262" x="-168.40871 -165.80228 -163.59709 -161.39188 -159.11981 -158.18416 -154.84271 -152.57065 -150.63248 -149.49623 -147.29103 -143.9496 -141.67754 -139.47235 -137.26712 -135.06194 -133.65869 -131.5872 -129.31512 -126.50816 -124.30299 -123.98769 -122.29678 -120.09151 -119.08894 -117.0839">Podpisistempelprzewoz´nika</tspan>
        <tspan id="tspan570" y="76.11793" x="-168.40871 -165.60181 -163.32976 -162.26042 -159.9884 -158.65364 -156.51532 -154.57719 -152.37202 -150.96881 -150.10008 -148.897 -146.42438 -144.15234 -141.94719 -138.47206 -135.79881 -134.68161 -132.46457 -129.1232 -126.85117 -124.63412 -122.42896 -120.21191 -117.93987 -114.59844 -112.12583 -110.79106 -108.57401 -106.43572 -104.23054 -103.11333 -102.04398 -99.77195 -97.566765 -96.231987 -93.959923 -92.625145">UnterschriftundStempeldesFrachtführers</tspan>
        <tspan id="tspan572" y="81.06324" x="-168.40871 -165.80228 -164.79977 -162.59378 -160.38779 -158.18178 -157.04555 -154.83955 -153.43629 -149.89427 -147.62222 -145.41621 -141.94106 -139.86957 -138.73332 -136.52733 -133.18591 -129.57704 -127.3718 -124.89915 -123.76292 -121.55692 -117.94804 -116.00985 -113.73778 -112.41402 -111.09026 -110.20567 -107.93358">Signatureandstampofthecarrier</tspan>
        <tspan id="tspan574" y="71.17261" x="-14.1017 -11.495255 -9.2872 -7.079205 -4.8711805 -3.8686156 -0.52713132 1.7449826 3.6832054 4.819488 7.0275126 10.368978 12.577031 14.849157 17.054386 19.259657 21.531784 23.737055 24.73959 26.94486 28.270641 30.27569">Podpisistempelodbiorcy</tspan>
        <tspan id="tspan576" y="76.11792" x="-14.1017 -11.294741 -9.022644 -7.9532747 -5.6812072 -4.3550749 -2.2835808 -0.27856126 1.9266509 3.329922 4.1987176 5.4018264 7.8744826 10.082859 12.354926 15.763244 18.50337 19.639595 21.844807 25.186272 27.391455 29.663551 31.868753 34.07716 36.349255 39.623825 42.363922 45.705357 47.910568 49.046795 51.252007 53.524101 55.73251 57.940884 59.344154">UnterschriftundStempeldesEmpfängers</tspan>
        <tspan id="tspan578" y="81.06323" x="-14.1017 -11.495283 -10.559633 -8.2875357 -6.0823236 -3.8771117 -2.7408874 -0.53567529 0.86759585 4.4096227 6.6817193 8.8869314 12.362105 14.433599 15.569824 17.775036 21.11647 24.725355 26.930626 29.403282 30.539505 32.744717 36.3536 38.291794 40.497005 42.769104 44.707237 45.709774 47.914986 50.187054 52.392265">Signatureandstampoftheconsignee</tspan>
        <tspan id="tspan580" y="90.95386" x="-326.65869 -322.98291 -320.84451 -320.45667 -318.63879 -316.03247 -313.09216 -309.75076 -306.27557 -304.40427 -303.26807 -300.32776 -296.8526 -294.98129 -292.30804 -290.03595 -289.23404 -287.229 -285.09064 -281.68234 -278.34088 -276.06882 -273.86993 -271.67105 -268.06216 -265.86328 -264.98578 -261.37689 -258.03549 -257.15799 -256.54733 -254.9514 -252.7462 -250.60785 -248.66968 -246.3976 -244.1924 -242.86237 -240.59027 -238.37796 -236.16563 -233.29655 -231.22507 -229.22003 -225.67801 -223.40593 -222.07588 -220.07085 -217.85854 -215.05156 -212.77951 -210.7077 -210.32359 -208.43927 -204.2959 -202.02382 -200.68744 -198.48264 -196.21056 -194.00575 -191.1442 -189.20602 -187.06767 -183.65936 -181.38731 -179.1825 -176.97769 -174.70563 -171.76534 -170.89656 -168.69174 -166.41968 -162.87764 -160.67247 -158.66743 -157.53119 -155.32637 -154.32387 -152.11906 -149.91425 -149.03082 -146.75876 -143.41734 -140.94469 -139.00653 -137.73695 -137.34689 -135.52943 -134.19305 -130.7179 -128.57954 -126.37116 -124.36615 -123.29675 -121.09154 -120.08903 -116.74757 -114.47548 -112.27026 -110.3321 -108.06004 -105.85162 -103.6427 -101.37061 -97.828575 -95.556511 -94.230377 -92.225327 -90.016953 -86.675529 -83.334061 -82.465294 -81.857521 -80.261597 -78.056389 -75.918037 -73.979874 -71.707771 -69.502563 -68.172508 -65.900406 -63.688076 -61.475746 -58.606678 -57.25758 -55.064671 -52.195602 -49.983242 -48.980736 -48.376041 -45.510563 -43.037926 -41.707047 -39.493893 -37.221828 -35.149921 -32.877853 -30.672613 -29.341764 -28.228479 -24.68642 -21.813017 -20.482168 -18.21007 -15.996919 -13.783796 -10.913937 -8.7008142 -6.4876628 -2.2774336 -0.4061234 0.73010081 3.6703901 7.1452999 8.34797">Wzo´rCMR/IRU/Polskaz1976dlamie˛dzynarodowychprzewozo´wdrogowychodpowiadaustaleniom,kto´rezostałydokonaneprzezMie˛dzynarodowa˛Unie˛TransportuDrogowego/IRU/.</tspan>
       </text>
       <text x="0" y="0" id="text590" transform="matrix(0 1 1 0 30.1397 219.611)" font-weight="normal" font-size="3.95625px" font-family="Helvetica" fill="#21401d" fill-rule="nonzero">
        <tspan id="tspan584" y="0" x="0 2.8647475 6.4068494 9.2715969 11.209805 13.481916 15.687172 16.689737 18.894934 19.781572 21.989611 24.261723 25.130518 28.672636 30.944761 33.152756 36.761673 38.969727 41.17778 43.385777 45.657871 48.46489 49.333744 51.605869 53.811081 55.883045 56.751839 59.023968 59.825993 62.098091 64.303307 64.565628 66.427017 68.365234 69.244759 70.59391 72.853737 75.054642 77.255547 79.527672 81.728577 84.535591 86.674355">Dowypełnieniapododpowiedzialnos´cia˛nadawcy</tspan>
        <tspan id="tspan586" y="4.94531" x="0 2.6064165 4.811614 6.9499779 8.8881273 11.160225 12.229579 14.501632 15.437283 16.321152 18.593204 22.135202 24.407314 26.612526 27.681866 29.953993 32.627136 34.899261 37.104473 39.710819 42.450947 44.656128 45.979126 48.251194 50.456406 51.592659 54.532921 56.738132 58.141376 59.2108 61.482868 63.688084 67.230141 69.502205 71.70742 75.048874 77.655296 79.860504 81.998856 84.204063 86.409279 88.681343 90.886559 92.209557">AuszufüllenunterderVerantwortungdesAbsenders</tspan>
        <tspan id="tspan588" y="9.89062" x="0 2.4726562 5.9478145 8.1482515 11.757151 13.6953 15.967353 19.30876 21.514015 22.516521 24.721718 25.857971 28.063154 31.672039 33.877251 37.352394 38.5555 40.827629 44.235947 46.374294 48.57476 50.775227 53.047295 55.247791 56.565983 57.445091 60.786549 62.189819 64.395027 66.400024 68.600487 70.80101 73.00145 75.139824 76.018875 78.219398 79.09845 80.100929 80.980064 82.0494">Tobecompletedonthesender’sresponsibility</tspan>
       </text>
       <text x="0" y="0" id="text594" transform="matrix(0 1 1 0 38.0255 321.124)" font-weight="normal" font-size="9.89063px" font-family="Helvetica" fill="#21401d" fill-rule="nonzero">
        <tspan id="tspan592" y="0" x="0 8.8878384 17.174248 22.721046">1–15</tspan>
       </text>
       <text x="0" y="0" id="text602" transform="matrix(0 1 1 0 30.1397 356.075)" font-weight="normal" font-size="3.95625px" font-family="Helvetica" fill="#21401d" fill-rule="nonzero">
        <tspan id="tspan596" y="0" x="0 2.8714418 3.740237 5.089334 5.9454589 8.0837793 10.021973 12.29404 13.162835 16.704863 18.976959 20.309391 22.524124">wła˛cznieoraz</tspan>
        <tspan id="tspan598" y="4.94531" x="0 2.2720969 3.1408629 5.3354111 7.3404307 9.4119539 11.617166 12.490297 13.363428 15.635526 17.706989 19.71204 20.585199 21.520851 23.525869">einschliesslich</tspan>
        <tspan id="tspan600" y="9.89062" x="0 0.87828749 3.1503844 5.0886073 6.0911717 8.2908468 10.562973 11.44126 13.640936 17.249878 19.449553 21.649229">includingand</tspan>
       </text>
       <text x="0" y="0" id="text606" transform="matrix(0 1 1 0 38.0255 394.702)" font-weight="normal" font-size="9.89063px" font-family="Helvetica" fill="#21401d" fill-rule="nonzero">
        <tspan id="tspan604" y="0" x="0 5.5467391 13.231857 21.117746 26.664515 34.216099 42.235519 47.849525">19+20+22</tspan>
       </text>
       <text x="0" y="0" id="text614" transform="matrix(0 1 1 0 30.1397 456.987)" font-weight="normal" font-size="3.95625px" font-family="Helvetica" fill="#21401d" fill-rule="nonzero">
        <tspan id="tspan608" y="0" x="0 2.8595181 5.0623279 7.2651377 8.6683798 10.606485 12.744835 14.949977 17.155159 19.427198 22.234098 23.11552 25.318331 27.590399 29.662245 30.543638 32.746418 35.018456 38.560455 39.696621 40.565414 42.768196 44.906517 45.975826 47.980846 51.322163 53.527424 54.529873 55.398727 57.601509 58.48296 60.685741 64.027176 66.299171 69.239494 71.244041 73.446823 75.649666 76.531113 78.803154 79.738808 83.213943 85.419128 86.822342 88.893745 91.165848 93.972748 96.175583 96.480331 98.171295 100.37654 101.379">Rubrykiobwiedzionetłustymiliniamiwypełniaprzewoz´nik</tspan>
        <tspan id="tspan610" y="4.94531" x="0 2.8603969 3.742698 7.2847562 10.62625 11.508522 13.98121 15.251233 17.456503 18.592758 21.065477 23.269136 25.472824 27.676514 29.079784 31.283474 33.288551 35.360428 36.496708 38.700367 42.309338 44.512997 45.395329 47.598988 48.481319 50.753414 54.295532 56.567631 57.369629 59.641727 61.845444 64.049103 65.452377 67.656036 69.859749 73.201248 74.471184 76.676483 80.15168 83.092056 85.364159 87.569458 88.890869 89.773148 91.778221 93.983521 97.592438 100.93388 103.13759 105.14267 107.21413 109.419 112.8942 115.03264 117.2363 121.78084 124.25354 125.65681 127.86047 129.9324 132.20456 133.27393 134.41016 136.61545 138.88754 140.22437 142.42809 145.16818 147.3719 149.644 151.58221 153.78752 156.05962 157.26234 159.5345 160.40329 161.20535 163.67798 166.68521 168.89046 170.29372 172.49744 174.7011 176.90482">DiemitfettgedrucktenLinieneingerahmtenRubrikenmüssenvomFrachtführerausgefülltwerden.</tspan>
        <tspan id="tspan612" y="9.89062" x="0 2.4726105 4.6777639 8.1529064 10.291226 12.497581 14.703965 16.708984 18.91531 22.256767 23.392933 24.729319 26.935673 30.27705 32.549118 36.091118 38.954208 39.956772 41.026024 44.634468 46.840881 49.112923 51.319218 53.257381 56.598804 57.467602 58.470108 60.675232 62.94733 66.288757 69.630074 71.835312 73.839867 76.312492 77.381744 78.384247 79.269279 80.154305 82.360657 85.969513 86.838249 90.38031 92.652344 95.993774 97.063019 99.335121 102.87712 104.88208 107.08727 108.49047 109.82724 110.829 113.03418 114.35829">Thespacesframedwithheavylinesmustfilledinbythecarrier.</tspan>
       </text>
       <text x="0" y="0" id="text622" transform="matrix(0 -1 -1 0 536.5 599.397)" font-weight="normal" font-size="3.95625px" font-family="Helvetica" fill="#21401d" fill-rule="nonzero">
        <tspan id="tspan616" y="0" x="0 3.4752095 8.6211987 10.893296 12.229712 14.167934 16.173012 18.381065 20.653164 22.861217 24.933151 28.408352 30.680508 32.00626 34.078133 36.350288 39.157307 41.36536 43.370441 46.979355 48.048725 50.32082 53.261608 55.469604 56.872932 57.258896 59.076778 63.286999 65.493057 66.377739 68.58374 70.855774 73.061836 75.066803 77.272858 78.275429 80.48143 82.48645 84.424614 86.696709 88.768585 90.773193 92.979256 95.451881 97.65789 99.929985 101.25368 101.63326 103.45074 105.45587 108.79736 111.002 113.94232 116.21442 118.41811 119.55439 121.75805 123.96174 124.84404 127.11617 129.31985 131.52354 135.13246 137.33614 139.53983 141.54488 142.54744 144.75113 146.95479 149.22691 151.4306 152.31288 155.92183 157.86005 160.06371 160.33151 162.05919 164.99947 165.87975 168.15182 170.35349 172.35851 174.4304 176.63559 178.90768 179.77652 181.97815 184.45081 186.65248 188.92455 189.72649 191.99855 192.34906 194.06961 197.41107 199.61629 201.88838 204.0936 206.29878 206.72472 209.64127 213.85149 216.123 218.06114 219.19739 221.4026 222.67218 224.8774 225.74619 230.42403 233.29785 234.16664 236.37186 237.70827 239.84662 241.78476 244.05685 246.52951 248.46765 249.47018 251.67538 253.6804 254.29015 255.88608 258.35873 259.22751 260.23004 262.23508 264.17325 266.37845 266.98767 269.98691 272.19211 273.59537 275.80057 279.14206 283.35226 285.55984 287.83197 290.03958 291.97772 296.72244 298.92764 300.25296 302.25803 304.3299 306.60202 308.8096 311.01718 313.02222 316.63113 317.49985 318.30182 319.57199 321.7796 323.18286 323.79208 325.38803">*Wprzypadkuprzewozutowaro´wniebezpiecznych,opro´czewentualnegoposiadaniazas´wiadczenia,nalez˙ypodac´wostatnimwierszu:klase˛,liczbe˛orazwdanymprzypadkulitere˛.</tspan>
        <tspan id="tspan618" y="4.94531" x="0 3.4752095 6.14854 8.4206371 10.625954 12.829613 15.033331 16.169556 18.373274 20.64537 21.966785 22.969351 23.851681 25.789904 28.062 30.2673 33.876217 36.950253 39.153912 40.423435 41.744911 45.220112 46.222679 48.1609 49.297184 51.76981 53.973469 56.177189 58.315567 60.320236 62.525536 65.265625 67.469284 69.672943 72.279381 74.483093 76.621414 78.825195 81.028793 82.164726 84.368385 86.640541 87.522812 88.458519 90.730621 94.139023 96.87915 99.08445 101.08953 103.161 105.43315 107.638 108.5203 110.72399 111.60626 113.87839 116.08208 118.28577 120.48946 122.96214 125.2343 127.43954 129.91223 132.11749 134.38962 137.06291 137.94519 140.21732 141.42004 143.42514 144.49454 146.76668 150.30873 152.58086 153.46315 155.66684 156.66939 160.07773 162.34988 164.55513 167.29527 170.10226 172.37439 174.57965 175.90108 176.90361 180.24512 182.45039 184.72252 186.66074 188.93283 191.13652 193.34021 195.5439 197.81602 200.01971 202.4924 204.69609 205.5784 209.18733 211.92749 212.80977 215.013 216.95122 219.08957 221.29326 223.76598 226.0381 226.84004 230.44899 232.92169 233.80399 234.94025 236.14336 238.41548 239.73692 242.20961 244.14783 246.41994 249.22691 250.22948 253.70471 255.90999 258.18213 260.38574 262.58945 264.79312 267.04657 269.24826 271.44989 273.72195 274.92508 277.13028 278.01053 278.89084 282.23224 284.50436 286.70956 289.44965 292.12289 294.39499 296.33316 298.53482 300.53989 301.80945 304.01108 306.21271 308.41437">*BeigefährlichenGütrnist,ausserdereventuellenBescheinigung,aufderletztenLiniederRubrikanzugeben:dieKlasse,dieZiffer,sowiegegebenenfallsderBuchstabe.</tspan>
        <tspan id="tspan620" y="9.89062" x="0 3.4752095 4.6779375 8.15308 10.224955 12.497052 14.435216 18.04413 20.249313 22.721943 24.927183 27.199223 29.403233 31.607302 33.879398 35.201168 37.405178 39.677273 43.0187 45.222771 47.426781 49.630848 51.902889 55.244373 58.585751 60.789818 62.993828 64.130051 65.01268 67.216743 69.420761 71.893448 74.165482 76.370728 78.442604 79.311394 81.583496 83.788734 87.130157 88.26638 90.470398 94.079308 96.283318 98.487328 100.49241 102.56422 103.43308 105.63715 106.51983 110.12872 112.13374 114.338 115.65977 116.92973 117.79853 118.86793 119.87043 121.87545 124.08069 125.21689 126.21942 128.42349 130.6275 131.76373 133.96774 137.57666 138.64603 140.91812 144.46011 145.32895 147.60101 149.53914 152.0118 153.01434 153.89696 156.101 159.70988 161.9151 164.38776 165.52397 167.72801 171.33693 173.27507 175.54713 176.42979 178.63382 181.97527 185.58415 186.65355 188.92561 192.46764 194.67285 196.94495 198.28133 199.41756 200.42006 202.35826 204.56348 205.44609 207.71815 209.03993 212.38138 214.58501 217.05766 218.32721 220.53242 224.00763 226.07912 226.96178 229.23387 231.172 233.31035 235.783 236.85237 239.12448 242.66647 244.93857 247.14378 250.48521 252.68922 254.89323 257.4996 259.77173 261.97696 265.58582 266.65521 268.85925 272.46039 273.32919 275.53439 276.80396 277.94019 280.14545 282.88553 285.35818 286.16006 288.63272 290.90485 293.11005 295.11505">*Incaseofdangerousgoodsmention,besidesthepossiblecertification,onthelastlineofthecolumntheparticularsoftheclass,thenumberandtheletter,ifany.</tspan>
       </text>
      </g>
      <path id="path624" d="m2658.6162,5767.33572l9.5977,0l0,9.5977l-9.5977,0l0,-9.5977z" fill="#21401d" fill-rule="nonzero"/>
     </g>
    </g>
   </g>
  </g>
 </g>
</svg>